<svg id="patchwork-map" xmlns="http://www.w3.org/2000/svg" viewBox="0 0 1400 849"><defs><style>.state{fill:none;}</style></defs><title></title>
<g id="USA">
	<path class="outline" d="M882.11,221.06c1.68,0,3.4-1.94,4.94.25,1.34,1.91.24,3.39-.53,5.07-4.17,9.07-4.54,18.8-3.45,28.37a66.09,66.09,0,0,1-1.72,25c-2.29,8.45.41,15.25,5.9,21.36a7.05,7.05,0,0,0,10.66-.78c3-4.44,5.55-9.09,5.89-14.58.54-8.62.91-17.11-2.29-25.57-2.92-7.71-3.62-15.44,2.16-23,3.19-4.19,4.8-9.75,7.5-14.53a9.73,9.73,0,0,1,5.89-5c3.5-.92,5.07-3.32,6.5-6.24a30.68,30.68,0,0,1,7.2-10.07c5.36-4.62,9.51-4.76,17.21-.06a89.16,89.16,0,0,0,9.09,5.05c4.76,2.19,6.86,6.14,6.75,11.22s-.34,10-.8,14.92c-.21,2.27.33,3,2.6,2.81s4.58-.07,6.9-.76c3.42-1,6.61.15,7.78,3.61,2.28,6.75,6,12.91,7.7,19.9.92,3.69.35,6.62-2.07,9.15-6.65,7-10.67,15.54-15,23.92-3,5.85-1.53,8.08,5.11,8.1,5.46,0,9.7-2.89,14-5.71,9.16-6,18.32-11.75,29.17-14.6,6.09-1.6,11-6.17,15.62-10.42,4.26-3.91,7.32-9,11.61-13,1.64-1.53,2.43-4,.1-6.08a5.76,5.76,0,0,1-1-1.73c-4-7.89-3.22-9.57,5.33-12.42a230.86,230.86,0,0,1,39.09-8.89c2.92-.44,5.62-1.67,8.76-1.53,2.87.12,2.33-3.18,3.27-5a4.89,4.89,0,0,0,.34-2.92c-2.31-13.57,5.9-21.44,14.65-30,8.46-8.24,18.41-8.26,28.54-8.57a72.3,72.3,0,0,0,14.76-1.46,32.65,32.65,0,0,1,11.89-.45,18,18,0,0,0,7.26-.9c2-.53,3.1-1.69,2.24-3.56-2.86-6.19,1.81-9,5.63-11.34,6.51-3.95,8.83-10.38,11.66-16.65a23.91,23.91,0,0,0,.44-18.84c-.83-2.24.78-3.75,2.28-5.13a10.65,10.65,0,0,0,3.71-10.54c-1.07-6.77.78-12.84,7.8-16.23,2.94-1.42,5.88-2,8.46-.19,3.67,2.59,7.4,2.42,11.4,1.59,7.9-1.64,10.6-.23,13.32,7.35a55.8,55.8,0,0,1,3.32,23.55c-.15,1.81.07,3.64,0,5.46-.19,4.5,1.41,7.05,6.39,6.22,2.08-.35,3.46.71,4.51,2.41a40.11,40.11,0,0,0,11.66,12.65,5.43,5.43,0,0,1,2.35,6.58c-1,2.55-2.82,5.24-6.14,4.9-12.25-1-17,3.35-25,6.23-1.66.6-4.08,3-3,5,2.48,4.41-1.43,6.25-4.75,7.78-8.13,3.75-13.89,8.32-18,16.25-3.22,6.21-6.55,13.62-7,20.75-.42,6.66-3.25,12,7.68,18.69,2.72,1.79,2.67,4.13,5.32,1.58,1.42-1.36,3-6.24,5.49-3.91a6,6,0,0,1,1.51,7.39c-1.8,3.45-3.8,5.94-8.25,6.25-6,.42-8.11,4.45-7.76,11.12,0,.88-3.63,2.91-4.24,3.63s-2.19-1.13-2.75-.5c-4.22,4.77,5.2,5.7-14.25,7.5-7.33-.49-15.84,1.43-23,2.75-1.72.32-2.27,2.5-1.9,4.26s2.41,1.31,4.23,1a26.25,26.25,0,0,0,8.31-3.18c2.75-1.52,5.53-2.31,7.34.93,1.72,3.08-.86,4.52-3.12,5.69-5.08,2.63-9.79,6.22-16,5.93a10.51,10.51,0,0,0-6.1,2c-2.45,1.61-4.21,4.15-2,6.66,3.18,3.63.72,8.31-.06,12.17a49.27,49.27,0,0,1-11.17,22.5,8.69,8.69,0,0,0-2,4.38c-.59,3.67.82,7.41-.8,10.86-1.23,2.62-2.31,5.33-3.32,8.06-2,5.46-3.84,11-6.27,16.34-1,2.25-2.42,5-5.55,3.42-2.83-1.39-4.56-3.58-3-7.3,1.08-2.53,3.26-7.06.44-9.93-1.41-1.43-3.87-3.1-4.67,1.5-.25,1.43-1,4.3-2.42,4.83-5.75.83-3,3.61-.28,6.33,3.61,3.55-1.7,4.35-4.46,6.17,2.32,2.79,7.19,4.39,10.34,4.37,7,0,8.12,1,10.22,7.63,2.47,7.87,2.47,7.87-.48,13.52.74,1.19,2.1.62,3.11,1.05,4.07,1.73,5.39,6.57,2.29,9.71s-5.82,6.86-10.24,9.47c1.2,1,2.17,1.87,3.2,2.66,2.19,1.67,3.3,3.57,2.2,6.45s-2.9,6.06-6.05,5.87c-13.41-.81-20.59,8.17-27.29,17.3-4.32,5.89-8.74,10.34-16.48,10.07-1.69-.06-2.66,1.08-3.57,2.36a30.29,30.29,0,0,0-4.17,7.35c-2.69,7.51-8.35,12.27-15,16a14.34,14.34,0,0,0-6.68,7.06c-4.21,10.18-11.26,18.38-19.49,25.29-4.74,4-3.91,8.36-3.55,13,1.19,15.17,8,28.69,14.36,41.92s11.88,26.83,20.35,39.06c5.68,8.21,4,18.07,1.5,27.37-.56,2.08-2,4.11-1.9,6.14.27,10.31-16.33,13.32-21.58,7.35a64.35,64.35,0,0,0-17.2-13.41,11,11,0,0,1-5.41-8,14.35,14.35,0,0,0-6.26-9.59c-3.88-2.82-6.85-7.08-6.7-12.52,0-1.73-.1-3.44-1.7-4.44-3.13-2-3.51-4.85-3.51-8.21,0-5.44.15-10.93-2.57-16a9.7,9.7,0,0,0-3.56-4c-7.57-4.53-15.4-8.29-24.17-10a15,15,0,0,0-9.65,1.05,22.08,22.08,0,0,1-17.42.6c-6.39-2.27-12.89-4.23-19.31-6.44a19.15,19.15,0,0,0-15.88,1.14c-4.7,2.52-8.79,3.78-13.61-.34-2-1.75-5.42-2.13-7.13-5.51-4.73,7.22-12.25,3.61-18.33,5.46-3.61,1.1-7.54,1.12-11.26,1.92-2.72.58-3.75,1.9-3.13,5.3,1.28,7,3.51,12.77,10,16.71,3.77,2.28,3.16,5.19-.26,9.72-2.64,3.5-5.28,2.62-8.13.56-1.35-1-2.59-2.11-4-3-1.61-1-3.3-1.9-4.18,1a2.76,2.76,0,0,1-3.19,1.85c-6.19-.66-12.29-2.16-18.58-2a2.86,2.86,0,0,1-2.87-2.38c-.71-3.68-3.34-4-6.27-4.12-6.62-.35-13.62-1.87-19.76-1-14.58,2.06-29.13-1.48-43.47,1.06-4.66.83-10.44.54-12.4,7.63-1.88,6.81-9,8.81-14.67,11.7-4.64,2.35-9.36,4.2-13.73,7.42-4,2.92-9,4.53-12.15,8.81-6.48,8.89-12.43,17.86-12.41,29.65,0,5,1.41,9.48,2.84,14,2.06,6.5-.46,10.23-7.25,9.11a64.74,64.74,0,0,1-21.3-7.84c-12.51-7.06-18.58-19-23.9-31.42a43.34,43.34,0,0,0-10.42-14.93,36.55,36.55,0,0,1-9.12-12.89c-5.9-14.25-17.62-20.92-32.07-23.69-1.77-.34-3.59-.47-5.39-.8a11.23,11.23,0,0,0-11.8,5.6,47.21,47.21,0,0,1-4.13,5.6c-3.26,3.92-6,4.44-10.24,1.41C552.52,595,543.29,586,537.4,574.06c-3.3-6.65-7.1-12.62-13.34-17-2.92-2.05-5.21-5.14-7.4-8-6.2-8.2-14.65-11.54-24.58-12.14-5.14-.31-10.28,0-15.45-.55-2.78-.31-6.22-.92-7.88,3.56-1.17,3.16-5.32,2.13-7.63,1.13-7-3.05-14.27-1.75-21.45-2.32-12.09-1-24.26-.17-36.3-1.84a8.22,8.22,0,0,1-3.31-.94q-25.92-15.78-51.84-31.54c-3.46-2.11-6.25-4.69-7.45-8.9-.71-2.49-2-4.61-5.74-2.22-2.58,1.64-6.42,1.8-9.69,1.74-7.49-.14-14.77-2.23-21.93-4.07-9.43-2.42-15-9.87-19.06-18.34-.76-1.58-1.58-3.11-3-3.84-6.85-3.5-11.26-9.66-16.63-14.78a7.61,7.61,0,0,0-1.86-1.65c-6.92-3-11.53-9.2-17.73-13.16-4.85-3.1-10.81-3.59-15.76-7-4-2.74-6.36-5.52-6.32-10.35,0-5.5-2.42-10.38-4.74-15.06-3.38-6.81-6.57-13.75-10.71-20.19-3.07-4.76-4.43-10-2.8-15.67a5.57,5.57,0,0,0-.67-4.74c-1.73-2.83-3.25-5.79-4.82-8.71-1-1.91-1.25-4,.36-5.53,3.1-3,3.85-6.76,4.19-11.28-2.72.75-5.45,1-7.74-.78s-2.7-4.41-3.71-6.84c-2.37-5.65-5.5-10.93-7.93-16.59s-2.74-11.47-3.09-17.35c-.22-3.67-.28-7.57-2.27-10.54-6.91-10.29-4-19.62,2.24-28.65,3.65-5.3,5.78-10.11,4.36-17.29-2-9.91-3.23-20.25.22-30.5,1.49-4.4,4.77-7.43,6.61-11.51,4.24-9.38,7.74-18.9,8.52-29.23a24.32,24.32,0,0,1,1.56-6.73c1.9-5.11,4.05-10.07,3.75-15.83-.18-3.47,1.63-6.7,4.15-9.33,1.63-1.7,3.15-3.39.88-5.86-1.35-1.46-1-3.25-.17-5.07,1.49-3.2,1.9-6.15-1.59-8.75-2.62-2-2.57-5.37-2.37-8.3A29,29,0,0,0,204,95.65c-2.35-4.51-.53-10.35,3.63-13.3,4.75-3.37,9.65-2.89,13.8,1.58a14.43,14.43,0,0,0,7.47,4.63,21.3,21.3,0,0,1,8.49,3.59c3.51,2.67,5.89,1.59,7.67-2.61.7-1.66,1.82-3.08,2.15-5,1.21-7,4.56-8.88,11.65-7.31s13.87,4.49,21.18,5.34c16.64,1.93,32.5,7.52,48.87,10.77,7.36,1.46,14.27,5.1,21.56,7.11,14.19,3.93,28.5,7.5,43.13,9.35,8.69,1.1,17.5.85,26.24,2.17,9.63,1.45,19.24,3.06,28.89,4.45,13.73,2,27.52,3.61,41.2,5.89,11.78,2,23.64,2.94,35.51,3.92,12.84,1.06,25.64,2.14,38.32,4.72,8,1.62,16.26.55,24.36.51,16.08-.08,32.13-.22,48.2.55,10.59.51,21.28-.48,31.81.48,8,.73,16.05,0,24.08,1.14,8.47,1.19,17.07-.19,25.58-.79,5.11-.36,10.21,1,15.33-.33,2.48-.64,4.2-1.06,4.36-4.24a4.29,4.29,0,0,1,4.61-4.26c2.93,0,3.75,2,3.88,4.23.4,6.76,5.44,8.4,10.6,9.75,1.93.51,3.79,1.11,5.67,1.75s3.32,1.51,5.16-.78c2-2.46,5.28-1.08,8-.72,5.07.67,10.76.12,12.91,6.79.56,1.74,2.9,2.48,4.81,3.27,8.91,3.66,18.28,3.68,27.65,3.87,1.83,0,3.68-.11,5.49.06s3.91.32,4.52,2.39a5,5,0,0,1-2,5.75c-4.62,3.2-8.8,7.14-14.25,9-5,1.69-8.16,5.57-11.68,9.08-.45.45-1,.93-.63,1.7.5.94,1.29.7,2.14.56,4.74-.79,9.54-1.36,14-3.41,3.16-1.47,5.26-.7,6.88,2.35,2.87,5.42,5,7,10.67,2.46,5.16-4.13,10.81-7.59,15.25-12.76,3.38-3.95,8.33-6.42,12.16-10.13,1.79-1.73,4.27-1.54,6.38.13,2.3,1.83,1.74,3.83.79,6.2s-4.79,4-3.34,6.75c1.26,2.4,4.77,1.6,7.31,2.17s4.32,2.21,6.74,3c9.19,2.91,17.15-.53,25.3-4,4.81-2,9.87-3.57,15.29-2.38,2.56.56,4.75,1.44,5.73,4.19.32.9,10.59,5.64,12.42,5.92,3.42.53,6.86.91,10.25,1.59,1.5.3,3.63.4,3.47,2.77-.13,1.89-.92,3.71-2.89,4.28-4.36,1.26-8.21,3.48-12.16,5.61-2.44,1.32-5.24.78-7.75-.33-4.54-2-9-1.72-13.59-.13-2.5.87-5.05,1.62-7.62,2.28-3.18.82-6.17,1.19-8,4.89-1.62,3.19-5.36,2.6-7.8.48-2.67-2.31-3.82-1.24-5.11,1.16-1.88,3.52-3.79,7-5.79,10.49A8.47,8.47,0,0,0,882.11,221.06Z"/>
</g>
<g id="WI">
	<path class="state" d="M810.67,264.34h.22v.36l3.87,6.37,8.85,13.76H869c.7,0,7.31-1.18,11.57-2l.15,0a24,24,0,0,1,.63-3.08,66.09,66.09,0,0,0,1.72-25c-1.08-9.57-.72-19.29,3.45-28.37.77-1.68,1.88-3.16.53-5.07s-2.82-.71-4.29-.35l-1.8,2.78L877.83,226V214.17l-1.9-2.53-2.77-5.17v-6l-2.06-2.65a31.54,31.54,0,0,1-5.84,0c-2.32-.33-7.63-1.33-7.69-1.34l-8.38-2.34a61.11,61.11,0,0,0-7.87-3c-1.05,0-5.56-2.6-6.92-3.4l-4.73-2.84.15-.25c-1.74-.37-3.06-2.15-4.58-5-1.62-3.05-3.73-3.82-6.88-2.35-4.41,2.05-9.21,2.63-14,3.41-.69.12-1.34.28-1.82-.15l-6.3,3-2.81,3.14v13.5l-4.13,4.48-3,3.49-2.55,3.34v8.76l1.33,4.41V233l.64,4.15,1.85,2.78,4,1.67,4.94,3.62,6,2.06,4.15,3.45,2.41,3.79v7.34Z"/>
</g>
<g id="SD">
	<path class="state" d="M572.49,227.17l0,38.66-1.64,4.92v5c1.83-.17,6.49-.52,7.72.1,1.11.44,15.78.2,24.76-.05,1.15,0,27.7.26,28.7.3s22.43,1.32,23.35,1.37c.41,0,11.62-1,12.63-1s4.71,2,5.42,2.38l4.53,3,4.55,3.25h9.3l2.67-2.67h2.38l3.41,2.73,5.1,2.08,1.89,1.89,4.56.85-.3-6.37.67-8.73-.34-5,1-3.75,1.62-3.56-1.3-4.31V244.75l-1.67-5.05V228l-3-2.75-1.39-3.12,1-10.31-8.21-.95-5.67-1.33H683.86l-2.67-1.67h-8l-17.88-1.5H621l-15.66-1.5-10.61,1.33H578.07l-5.57,1.55v18.45h0v1Z"/>
</g>
<g id="OH">
	<path class="state" d="M969.73,297.06l-5.28,1.28a5.71,5.71,0,0,1-1.43.18,4.28,4.28,0,0,1-1.91-.41,6.7,6.7,0,0,0-2.88.06c-1.35.19-2.52.35-3.17-.09s-4-.23-7,.08H936.83v6.42l2,6.26,1.68,10.74,1.67,9.32,2,10.66,2,7.59,1.66,5,2.86,7h3.17l8.33,6.33,25.64,0,5.64,1.73,3.73-2.15,3.65-4,0-3.14,1.08-3.07,2.82-.88,4.63-3.51,1-3.52,1.72-1.64,1.67-.83,2.74-.86,1.7-.84,2-.47,1.4-1.4,2.53-2,2.35-.78,1.48-2.07v-9.65l-.65-1.42-.85-3.78v-3.9l-1.17-2.84.2-4.09,1-2.75v-2.49l-.15-.38h0l-1.36-4.4-.68-3-1.14-4.07-1.19-2-1.14-4.17-1.85-2.75-.83-3-.75-4.13c-10.08,3-18.73,8.46-27.38,14.09-4.33,2.82-8.57,5.72-14,5.71C972.52,299.14,970.46,298.51,969.73,297.06Z"/>
</g>
<g id="CO">
	<path class="state" d="M579.78,424h23l-.29-3.63-.67-6,.67-9.42-1-9.92.67-8.66.67-10.76V364.91l2-5.67V336.67l-1.6-9.21-15.29-1.63h-9.28l-11-1.71h-.47V324l-3.58-.55h-9.26l-11.07-1.67H532l-15.39-1.67-9-1.67L472,315.2l-1.17,3.22v7.25l-1.33,21.56-1.33,15.48v21.35l-2,8.67,0,6.78-2,5.59v5.86l1,.27,0-.09.4.2,5.81,1.51,8.65,2,10.35,2.67,11.61,1.66c2.68.37,9.8,1.33,10.6,1.33,1,0,12.73,1.5,14.06,1.67L540.4,424h38.88l.49-.06Z"/>
</g>
<g id="IN">
	<path class="state" d="M889.29,302.58v6.09l1.54,9.25V325l-.77,4,.76,7.26,1.33,6.62,1.34,7.87,2,8.23v9.67l-1.68,8.76-1.43,4,0,9.06-1.69,5.26h.73l2.31-3.22,3.09-.34,2.67-2,4.85-1.86h4.92l2.75-.85h3.11l3.54.82,2.71-.77,1.8-2.38v-2.33h4v2.38l2.88.29,3.63-.31,1.49-3v-9.61l3-.76,3.29-1.2v-2.34l3-1v-1.85l2.59-2.56,2.61-1.45-2.83-6.92-1.68-5.08-2-7.65-2-10.7-1.67-9.34-1.67-10.68-2-6.41v-6.85l-1.43-2.15H900.74c-.85,1.59-1.81,3.14-2.82,4.66A7.12,7.12,0,0,1,889.29,302.58Z"/>
</g>
<g id="NE">
	<path class="state" d="M568.17,323.2l10.58,1.64H588l16.1,1.71,1.73,10v15.25H628l7.92-1.33h13.75c1.36,0,13.43-.32,14.79,0,.93.23,9.2,0,14.53-.16h10.35l10.7.74,3.35.74h34.95l3.51.25-3.18-3.71c-.55-.4-5.1-3.81-6.1-5.81-.76-1.52-4.19-3.48-5.44-4.11l-.12-.06-3.8-5.92a53.28,53.28,0,0,1-1.35-6.13,29.85,29.85,0,0,0-1.63-5.07l0-.18V308.73l-1.65-6.27-2-4.94L714.59,294l-2.52-2.83-5.32-1-2-2-5-2-3.2-2.56h-1.62l-2.67,2.67h-10l-4.8-3.43-4.49-3a22.08,22.08,0,0,0-4.87-2.23h0c-1,0-12.52,1-12.63,1-.29,0-22.41-1.33-23.39-1.37s-28.38-.29-28.65-.3c-4,.11-23.84.63-25.22-.05-.83-.42-4.79-.22-7.34,0l-1.27,8.94V297l-1.34,9.4Z"/>
</g>
<g id="NV">
	<path class="state" d="M346.57,417.45l2.38-1.78,3.17,1.58h2.94l1.86-1.63,1.83-1.15v-4.17l2.25-2.5v-5.24l2.5-3v-2.9h-.08l.08-.45v-1.65l2-2.25V385.5L368,372.16V356l1.75-12.57,2.5-16,1.25-22v-8.61l1.75-3,0-10.83,1-2-9-2.17-3.48,0-3.57-1.62h-2.66c-2.53-.53-6.53-1.32-7.23-1.32-1,0-4.84-1.5-5.72-1.85l-6.7-1.16-8.38-2.34-10.26-2.65h-.44v-.09l-31.6-6.25-13.21-2h-6.19v10.83l-2,11.09-1.67,9.66-2.35,8.06-3.65,16.58v9.51l2,4.57,4.29,6.59L274.48,351l7.52,6.63,9.38,10.71,9,12.37,13.1,15.44v2.35h2.4l7.82,9.52,5.39,5.75L333,421l4.45,3.18,2.34,5.52,5.46,4.62V432l.09-3a31.38,31.38,0,0,0,0-4.42,13.33,13.33,0,0,1,0-3.13Z"/>
</g>
<g id="KS">
	<path class="state" d="M603.5,420.28l.3,3.72h11.54l11.6-1.5h9.16l7.28,1.49H700c2.15,0,21.07-.16,22.08,0,.73.12,8.88-.87,13.85-1.5h13.9V371.16l-2.57-3.54-2.1-4.63v-2.58l-2.53-7.28-4.34-.31h-35l-3.39-.75-10.59-.73H679c-1.35,0-13.42.48-14.79.13-.93-.23-9.2-.12-14.53,0H636l-7.92,1.33H605.83v6.59l-2,5.67v10.58l-.67,10.8L602.5,395l1,9.91-.67,9.42Z"/>
</g>
<g id="KY">
	<path class="state" d="M999.22,383.55l-2.37-4.16-1.06-4.61-2-4.37-.25-.08-.25.14-.15-.26-5.59-1.71H961.83l-8.33-6.33h-3l-2.83,1.57-2.14,2.14V368l-3,1v2.32l-4,1.45-2.34.59v9.06l-1.85,3.69-4.28.36-3.87-.38v-2.29h-2v1.67l-2.2,2.92-3.29.93-3.74-.87h-2.86l-2.75.85h-4.91l-4.51,1.77-2.72,2-2.91.32-2.35,3.28h-1.52c-.28,1.27-.93,3.42-2.07,3.42a6.2,6.2,0,0,0-2.27.85l-1.23,3.08v3.38l2.38,2.77-.78,3.07-4.18,2.85h-9.52l-4.18,1.29-2.4,1.8v2.9l-1.54,2.31.08.09-.21.17v2.51l-3.66,2.89-4.32,1.63-1.94,2L852.45,435l-.31,1.7h14.48l8.72-1.85h13.28l9.62-2,5.27-1.24V424h24.78l12-2.49,9.68-1.67L961,417.5h2l10.59-1.66,10-1.67,2.17-.33,5.16-7.46,3-6.73,5.61-5.94,2.16-4.77-.11-.11.1-.1Z"/>
</g>
<g id="IL">
	<path class="state" d="M880.62,283.87c-1.53.28-10.63,2-11.62,2H824.09l2,4.57,2.63,3.28c.26.3,2.74,3.11,3.09,4.52a30.59,30.59,0,0,1,0,5.83l0,.13L830.1,309l-3.76,3.42L820.69,318l-2.88,3.28-.63,4,.33,3.94v4.49l-2.05,4.11-4.54,6.49,2.88,6.26,3,6.82,2,3.28c.83,1.57,3.18,5.76,4.21,6.52,1.34,1,4.89,4.23,5,4.36a7.2,7.2,0,0,0,3.55,1.88,23.9,23.9,0,0,0,5.05,0l.56-.06v19l3.45,3.37,3.92,1.71,2.85,1.47,3,3.67,3.11,2.76v8.73l1.57,2.2,2.13,2.12h2.36l4.39,5.17,1.21-1.82v-3.1l3-2.23,4.48-1.36H882l3.61-2.46.56-2.19-2.29-2.66,0-4,1.4-3.49.14-.09a7.46,7.46,0,0,1,2.92-1.07,5.37,5.37,0,0,0,1.08-2.58h0l.14-.45.07-.38h0l1.76-5.5,0-9.09,1.44-4,1.65-8.59v-9.51l-2-8.09-1.34-7.89-1.33-6.65-.79-7.45.79-4.07V318l-1.54-9.25V302a5.85,5.85,0,0,1-1-.9C882.68,296,880.06,290.46,880.62,283.87Z"/>
</g>
<g id="WY">
	<path class="state" d="M437.83,285.67l-2.31,24.06a10.38,10.38,0,0,0,4.81,1.11c3.15,0,27.51,2.88,31,3.29l0-.1.41.15,35.94,3.33,9,1.67,15.3,1.66h11.28l11.07,1.67h9.26l3.5.54V306.33l1.34-9.4V285.67l1.33-9.34,0-.44h.05v-5.3l1.67-5V227.17H562l-19.38-1.67-11.71-2H510.27l-6.07-1.68-22.91-2H463.67l-15.72-1.67h-4.48l-1.3,17.54v6.63l-2,15.07v5.35l-2.33,9Z"/>
</g>
<g id="PA">
	<path class="state" d="M1019.16,283.26l.8,2.86,1.86,2.75,1.15,4.18,1.18,2,1.17,4.16.67,3,1.39,4.55L1029,311v2.57l1.17,3.09v2.26l1,3.57v3.74l.8,2a18.72,18.72,0,0,1,.87,3.1,4.59,4.59,0,0,0,.67,1.21l2.63-1.17,4.54-1.52c1.29-.21,3.33-.56,3.67-.67s2.22-.87,3.14-1.24l.19,0h2.85c.61-.4,2.47-1.58,3.49-1.58s6.15-.44,6.74-.49l6-1.81,6.31-1.52h5.17a6.73,6.73,0,0,0,2-1.08l.14-.1h.17s2.66.17,3.47.17a4.63,4.63,0,0,0,1.57-.63,5.69,5.69,0,0,1,1.14-.52,11.61,11.61,0,0,1,2.39,0,16,16,0,0,0,2.3,0c.37-.07,1.06-.18,1.78-.29s1.84-.28,2.2-.37l3.94-.95c.3-.6,1.2-2.08,2.58-1.9s7.36,0,7.42,0l3.9-.33,2.2-.83,3.17-.5,5.24-1.17h8.48a13.64,13.64,0,0,1,1.25-3l1.44-2.63,0-3.09,1.43-3-1-4.49-1-2.41-1-2,0-8.23,1.92-4.63-2.41-5.3-2.95-4.9-4-4.21-3.92-3.68-3.58-1.66h-8.83a59.49,59.49,0,0,0-6.33,1.69,44.13,44.13,0,0,1-5.1,1.54l-8,1.75-3,1.26-3.75.5h-3.25l-5.57,1.5h-5l-2.5,2.93h-9.82l-3,2.07h-4.77c-.85.49-3.1,1.75-3.88,1.75s-3.43.21-3.9.24l-3.91,1.4-1.38-3.86-3.61-3.38c-4.09,3.7-8.47,7.32-13.74,8.7l-.82.23Z"/>
</g>
<g id="VA">
	<path class="state" d="M1140.29,357H1137l-8.59.07a7.7,7.7,0,0,1,1.09.93c2.82,2.87.63,7.41-.44,9.93-1.58,3.72.15,5.91,3,7.3,3.14,1.54,4.52-1.17,5.55-3.42,2.08-4.55,3.71-9.3,5.41-14Z"/><path class="state" d="M1105.5,342.39l-.62-2.8-2.56-2.56-3.78-2.56a13.92,13.92,0,0,1-2.37,1.68,11.54,11.54,0,0,1-2.49.36,8,8,0,0,0-1.44,1.48l-.15.19h-2.59l-2.57-2.23-1.06-1.67-2.28-.67-2.5-1.56-3.23.61-2.86,1.59-3.45,3.77-3.12,4.61-1.21,2.42-2,1.06a24.61,24.61,0,0,1-2.2,3.56,19.83,19.83,0,0,0-1.74,2.6l-3.32,3.86-3.32.87-3.6.78-1,2.23-4.17,4.67-2.28,3.76-1.09,2.83v3.41c0,.17,0,.68-2.58,3.77l-1.81,3.78c-2.71,4-3.39,4.4-3.69,4.45a7.41,7.41,0,0,0-.71.75c-.84,1-1.8,2.06-2.79,1.92s-4.71,1.94-5,2.6a1.19,1.19,0,0,1-.78.72,5,5,0,0,1-3.29-.46c-.56-.14-3.64,1.5-5.11,2.3l-.23.12a4.86,4.86,0,0,1-2.32.58,5.67,5.67,0,0,1-2.48-.58l-4.28-1.64-3.34-1.61-1.66-1.66-2.12,4.65-5.61,5.94-3,6.59-4.67,6.77,24.81-3.75,11.35-1.38h18.39l15.2-1.32,7.46-3.34h8.33l12.59-2,15-3.66,16-2.42,10.94-4.89,10.94-2.52c-2-6.24-3.28-7.2-10.06-7.16-3.14,0-8-1.58-10.34-4.37,2.76-1.82,8.07-2.62,4.46-6.17-1.77-1.74-3.51-3.51-3-4.77l-6.24-2.15-2.5-1.79-.65-4.23-2.57-.81-1.64-3.32-.68-3.58.68-4.75Z"/>
</g>
<g id="AZ">
	<path class="state" d="M403.36,536.84c12,1.67,24.21.87,36.3,1.84,3.61.29,7.24.1,10.84.24v-6.08l2.33-3.33,0-11,2.31-7.6V498.67l1.68-8.43,1.7-16.77,2.29-5.24V456l2.34-13.42V415.21l1.58-3.08-1.14-.3h-.44l-8.37,0-5.24-2.29h-3.9l-10.74-1.67-5.66-1.66h-5.6l-6.76-1.34-9.32-1.66c-.33-.05-8.42-1.36-11.45-2.7-2.81-1.25-8.63,0-8.69,0l-.13,0-7.72-2.35H372l-7.5-1.32v3.09l-2.5,3v5.26l-2.25,2.5V415l-2.23,1.4-2.08,1.83h-3.56l-2.83-1.42-1.62,1.22-1.15,3.6h0a13.33,13.33,0,0,0,0,2.78,31.51,31.51,0,0,1,0,4.6l-.09,4.63v1.5l.2.17-.2.24v6.86l1.28,5.44,1.53,5.6-1.28,5.87-1.61,3.95-2,1.75-1.87,4.88L341,475.31v3.56l-1.5,3V486l-1.21,6.23c1.36.25,2,1.66,2.47,3.22,1.21,4.21,4,6.79,7.45,8.9q25.9,15.8,51.84,31.54A8.22,8.22,0,0,0,403.36,536.84Z"/>
</g>
<g id="VT">
	<path class="state" d="M1148.49,195l1,5.56,1.64,4.13,2.66,6.45,1.65,3.28,2,6.18,2.46,5.24H1176c-.27-2.13-1.25-9.67-1.53-11.09a84.85,84.85,0,0,1-1-9.86c0-2-1.61-6-1.63-6l-.06-.15,1.78-7,3.67-5.27,3.14-4.92v-6.3a6,6,0,0,1-.93.33,18,18,0,0,1-7.26.9,32.65,32.65,0,0,0-11.89.45,60.27,60.27,0,0,1-11.83,1.36Z"/>
</g>
<g id="GA">
	<path class="state" d="M1039.59,523a84.62,84.62,0,0,0,7.91-7.52l-10.07-2.77-3.18-2.13-2.33-3.33-4.65-8-4-3.69-3.33-4.67-2.67-4-1.61-3.53-6-1.91h-4.06l-3.57-2.16-3.33-3.67-4-3.81L993,467.73l-3.61-.79-2.3-3.44h-2.73L982,457.83h-9.23L970,458.9v.18h-.46l-1.9.75h-9.94l-7.39,1.67h-6.9l-4.27,1.83v3.9l1.67,5.77v4.88l2.67,5v4l2.33,5.44v10.52l2.67,4v4.29l3.67,4.12V527.5l-2.24,2.88,2.24,4.16v9.27l2,2.33v9.31l1.4,1.4,2.43.3,7.22-1h19.45l7,1,8.68.33h8l8.83-.32v-8.74l3-2.61h17.45a65.68,65.68,0,0,1-1.55-9.78C1035.68,531.4,1034.85,527,1039.59,523Z"/>
</g>
<g id="OK">
	<path class="state" d="M639.78,467.11c.68,1.36,1.61,7.49,1.71,8.19v8l6,1.89,10.71,4.35,12.29,3.65,10,2.33,10.33,2.33,10.27,1,13,1.33h7.17l9.35-4.32,5-1H741l11.11,1.3L751.5,490V460.33l-1.66-11.6V437.69h0v-1h0V423.5H736c-2,.26-11.83,1.51-13.81,1.51h-.27c-.75-.12-13.51-.06-21.91,0H643.23l-7.28-1.49H627L615.4,425h-12l-.52,0v0h-23l.6,4.94v8.23h5.94l5.92,1.31,5.58-.66h7.32l6.68-2H612a43.9,43.9,0,0,0,6.81,0c1-.34,9.21-.08,10.84,0l10.15-.16v11.66C639.58,455.08,639.34,466.12,639.78,467.11Z"/>
</g>
<g id="NM">
	<path class="state" d="M579.5,460.59V430l-.61-5H540.33l-13.73-1.84c-3.6-.46-13.14-1.66-13.93-1.66-1,0-9.74-1.2-10.73-1.34l-11.67-1.67-10.39-2.68-8.65-2-5.49-1.43-1.57,3.06v27.21l-2.34,13.42v12.35l-2.34,5.36-1.66,16.59-1.67,8.38v12.31l-2.33,7.67v11.08l-2.33,3.33V539a27.3,27.3,0,0,1,9.61,2c2.31,1,6.46,2,7.63-1.13,1.66-4.49,5.1-3.88,7.88-3.56,5.16.58,10.31.24,15.45.55a42.09,42.09,0,0,1,8.66,1.38l1.53-7.42H523.1L531,532.5c1.15-.09,8.47-.64,10.15,0,1.84.73,12.87,2.59,14.25,1.88,1.61-.83,14.35-.27,18.06-.08V514.67l2-14.07V485c.81-6.48,2-16.29,2-17A62.3,62.3,0,0,1,579.5,460.59Z"/>
</g>
<g id="TN">
	<path class="state" d="M973.73,448.57l2.54-2.1c.58-1.11,2-3.86,2.25-4.63.37-1.1,2.55-2,3.21-2.21l2.92-2.8,6.32-6.51,5.74-6.24,5.32-1.84,2.06-2.41h4.05l3.4-2.78,1.51-6.3-1,.12-25.73,3.89-.16.23-.25-.17-2.18.33-10,1.67-10.67,1.67h-2l-10.95,2.32-9.69,1.67L928.33,425H904.5v7.39l-6.05,1.42-9.78,2H875.39l-8.67,1.85H851.95l-1.12,6.07-.45,3.07v.47h-.07l-1.14,7.78-2.85,10.14,10.06.78h27.3c3.13-.26,10.61-.76,11.66.12.58.43,5.1.27,9-.11l8.34-.82,7-1.33h14.36l4.24-1.21v-.12h.41l4.76-2h6.94l7.39-1.67h9.9l1.46-.57v-6.09l1.64-2.24Z"/>
</g>
<g id="AR">
	<path class="state" d="M759.82,514.76v5l9.76-1.57h16.75c3.39.09,12.43.28,13.67,0a28.31,28.31,0,0,1,4.72,0c2.89.15,6.49.33,8.18,0,2.58-.57,8.65-1.57,10.28-1.84l0-17.17,2.75-7.81,3.67-4.67,4.65-4,2.29-4.9,2.33-5.32,2.41-4.48,3.9-2.6,0-.26h.09l2.89-10.27,1.11-7.57h-8.78l-.13-.08A11.22,11.22,0,0,0,837,445.5h-3.31l-1.22-2.44.75-3,1.45-2.74-2.49-1.6H827l-11.35-1.92c-6.5.64-13.61,1.63-14.3,2.19-1,1-9,1-12.36.9l-10-.76-17.59,1.52H750.83v11l1.66,11.6V490l.64,6.34,4.51,2.27,3.52,2.82v6.24Z"/>
</g>
<g id="WV">
	<path class="state" d="M1094.37,331.27l-4-2.42-2.92-2.34H1085l-3.94,1.29-4,2.38h-2.55l-3.6.63-1.81,1.72-6.23,1.78a18,18,0,0,0-2.5,1.55c-.59.6-2.62.34-3.77.14h-2.64l-1.73-1.92-.68-2.74-1.17-2.42h-2.59c-.48.19-2.64,1.07-3.11,1.22s-3.42.63-3.75.69l-4.42,1.48-3.32,1.48-.24-.32a5.3,5.3,0,0,1-1.1-2.13,20.32,20.32,0,0,0-.81-2.75l-.86-2.25v-3.76l-1-3.57v-2.24l-1.17-3.09v-2.57l-.53-1.34V310l-1,2.76-.16,3.65,1.16,2.92v3.94l.81,3.56.69,1.58v10.08l-1.85,2.6-2.57.86-2.26,1.78-1.56,1.56-2.25.52-1.61.81-2.74.86-1.52.77-1.35,1.31-1,3.58-5.12,3.85-2.43.76-.89,2.52v3.28l-4.08,4.41-3.13,1.8,2.11,4.73,1.07,4.63,2.3,4,2.65,5.46,2,2,3.09,1.46,4.3,1.65a4.47,4.47,0,0,0,3.92,0l.23-.12c3.68-2,5.33-2.73,6.1-2.27a4,4,0,0,0,2.44.38c.07,0,.15-.06.17-.12.42-1.17,4.67-3.44,6-3.25.47.06,1.39-1,1.9-1.59s.88-1,1.25-1.08a29.58,29.58,0,0,0,3-4l1.86-3.87a22.54,22.54,0,0,0,2.39-3.24v-3.53l1.2-3.09,2.37-3.91,4.17-4.68,1.07-2.49,4.08-.89,3-.79,3.06-3.55a18.63,18.63,0,0,1,1.88-2.76,26.28,26.28,0,0,0,2.06-3.43l.07-.13,2-1.06,1.1-2.19,3.2-4.72,3.67-4,3.15-1.72,3.69-.7,2.77,1.73,2.45.7,1.23,1.93,2.14,1.83h1.74c.91-1.11,1.61-1.67,2.07-1.67a10.94,10.94,0,0,0,2.17-.31,14.44,14.44,0,0,0,1.92-1.4l-.28-.27Z"/>
</g>
<g id="NC">
	<path class="state" d="M1140.84,403.41c-1-.43-2.37.14-3.11-1.05,2.89-5.53,2.95-5.67.63-13l-10.93,2.5-11,4.92-16,2.42-15,3.66-12.71,2h-8.3l-7.4,3.33-15.33,1.33h-18.38l-9.21,1.13-1.67,7-3.94,3.22h-3.95l-1.94,2.26-5.34,1.85L991.7,431l-6.34,6.53-3.19,3c-1.17.41-2.53,1.15-2.69,1.62-.34,1-2.28,4.71-2.37,4.87l-.12.15-2.78,2.28-2.88,1.28L970,452.5v5.37l2.63-1h9.52l8.73-5.49c.22-.62,1-2.51,2.75-2.51,1.15,0,2.49-1.67,2.92-2.31l.15-.23h42.07l.12.07a12,12,0,0,0,3.42,1.47c1,0,5.19.32,5.37.34l10.78.35,7.33,2.33,7.39,3.36,6.48,3.75,5.53,8.9a3.85,3.85,0,0,1,3.25-1.92c7.74.27,12.17-4.18,16.48-10.07,6.69-9.13,13.87-18.11,27.29-17.3,3.15.19,4.92-2.89,6.05-5.87s0-4.78-2.2-6.45c-1-.78-2-1.65-3.2-2.66,4.42-2.6,7.1-6.29,10.24-9.47S1144.92,405.14,1140.84,403.41Z"/>
</g>
<g id="SC">
	<path class="state" d="M1079,458.7l-6.23-3.6-7.29-3.31-7.21-2.29-10.6-.33c-.07,0-4.35-.33-5.32-.33s-3.14-1.17-3.8-1.54H997.26c-.49.69-2,2.54-3.6,2.54-1.25,0-1.85,2-1.85,2l-.05.18L983,457.53l2,5h2.6L990,466l3.73.82,1.83,4.51,3.81,3.59,3.31,3.64,3.15,1.89,4,0,6.55,2.07,1.76,3.87,2.63,3.93L1024,495l4.06,3.75,4.67,8L1035,510l2.9,1.9,10.35,2.82a59.72,59.72,0,0,0,10.82-16.94,14.34,14.34,0,0,1,6.68-7.06c6.61-3.77,12.27-8.53,15-16a29,29,0,0,1,3.86-6.91Z"/>
</g>
<g id="NJ">
	<path class="state" d="M1148.75,334.08a9,9,0,0,1,1.25-1.91,49.28,49.28,0,0,0,11.17-22.5c.78-3.86,3.24-8.54.06-12.17a3.33,3.33,0,0,1-.7-3.75h-.7v-11h-4.94l-8.2-1.74h-10.36l-1.83,4.43v7.7l.94,1.81,1,2.54,1.06,4.9-1.52,3.23v3l-1.56,2.86a10.33,10.33,0,0,0-1.19,3l.72,3.19,2.78,4.26,1.84,3.26,2.55,1.68h2.48l1.78,3.38,3.28,3.66Z"/>
</g>
<g id="DE">
	<path class="state" d="M1147.95,334.54l-3.39-3.81-1.53-2.9h-2.18l-3-2-1.95-3.44-2.89-4.47-.65-2.94h-5c.28,2.8.22,4.44-.2,4.85a20.18,20.18,0,0,0-.68,4.46l1,6.44.83,3.8,1.5,6.34,1,.93H1148a25.63,25.63,0,0,1,0-5.29,9.2,9.2,0,0,1,.41-1.63Z"/>
</g>
<g id="FL">
	<path class="state" d="M1050.4,578c-4.78-10-9.87-20.21-12.57-31.15h-17.31l-2.35,2.06v9.26l-9.82.35h-8l-8.75-.33-7-1H965.28l-7.28,1-2.9-.36-1.93-1.93V551.5h-1.4l-4.08,1.7-5.67.3c-2.88-.31-6.22-.43-6.75-.08-1,.69-9.65.29-13.3.08H908.42L904.17,555l0,7.13-1.9,5.89c4.64,3.7,8.63,2.46,13.19,0a19.15,19.15,0,0,1,15.88-1.14c6.41,2.21,12.91,4.17,19.31,6.44a22.08,22.08,0,0,0,17.42-.6,15,15,0,0,1,9.65-1.05c8.77,1.71,16.61,5.48,24.17,10a9.7,9.7,0,0,1,3.56,4c2.72,5.06,2.58,10.56,2.57,16,0,3.36.38,6.26,3.51,8.21,1.59,1,1.74,2.7,1.7,4.44-.15,5.44,2.82,9.7,6.7,12.52a14.35,14.35,0,0,1,6.26,9.59,11,11,0,0,0,5.41,8,64.35,64.35,0,0,1,17.2,13.41c5.25,6,21.85,3,21.58-7.35-.05-2,1.34-4.06,1.9-6.14,2.52-9.3,4.18-19.16-1.5-27.37C1062.29,604.81,1056.69,591.15,1050.4,578Z"/>
</g>
<g id="NY">
	<path class="state" d="M1181.14,276.33a26.25,26.25,0,0,1-8.31,3.18c-1.59.27-3.35.6-4-.45l-3.25-.6-2.91-1.21h-2.82v-24l0-.49h0V227.86l-3.28-6.9-2-6.17-1.64-3.24-2.68-6.49-1.67-4.23-1-5.75V178.31l-1.93.06c-10.13.31-20.09.34-28.54,8.57-8.75,8.53-17,16.4-14.65,30a4.89,4.89,0,0,1-.34,2.92c-.94,1.77-.39,5.07-3.27,5-3.13-.13-5.84,1.1-8.76,1.53a230.86,230.86,0,0,0-39.09,8.89c-8.55,2.85-9.34,4.53-5.33,12.42a5.76,5.76,0,0,0,1,1.73c2.33,2.1,1.55,4.55-.1,6.08-4.29,4-7.34,9.08-11.61,13l-1.14,1,3.73,3.49,1.12,3.14,3.16-1.11c.13,0,3.28-.25,4-.25a16.49,16.49,0,0,0,3.5-1.68l.12-.07h4.73l3-2.07h9.68l2.5-2.93h5.41l5.57-1.5h3.25l3.62-.49,2.94-1.22,8.09-1.78a42.08,42.08,0,0,0,4.88-1.46,60.43,60.43,0,0,1,6.62-1.79h.11l9.21,0,3.88,1.83,4,3.76,4.09,4.36,3,5,2.39,5.26h10.53l8.2,1.74h5.78v11.43a8,8,0,0,1,2.41-2.34,10.51,10.51,0,0,1,6.1-2c6.22.28,10.93-3.3,16-5.93,2.26-1.17,4.85-2.62,3.12-5.69C1186.67,274,1183.88,274.81,1181.14,276.33Z"/>
</g>
<g id="MA">
	<path class="state" d="M1223.75,240c-2.65,2.55-2.59.21-5.32-1.58-7.86-4.81-8.6-8.92-8.25-13.33l-.07,0c-3.77-.87-10.16-2.08-11.27-1.64-1.67.67-6.19,2-6.38,2l-.14,0h-9l-6.16,1.23v0l-1,.13v-.07H1160.4l.43.92v25l14.64-.67h17.77l11.7-1.85,3,3.66h7.76c1.15-2.44,3.31-3.88,6.75-4.12,4.45-.31,6.45-2.8,8.25-6.25a6,6,0,0,0-1.51-7.39C1226.72,233.78,1225.17,238.66,1223.75,240Z"/>
</g>
<g id="ME">
	<path class="state" d="M1272.29,152.29a40.11,40.11,0,0,1-11.66-12.65c-1.06-1.7-2.43-2.76-4.51-2.41-5,.84-6.59-1.72-6.39-6.22.08-1.82-.13-3.65,0-5.46a55.8,55.8,0,0,0-3.32-23.55c-2.72-7.58-5.42-9-13.32-7.35-4,.83-7.73,1-11.4-1.59-2.57-1.81-5.52-1.23-8.46.19-7,3.39-8.87,9.46-7.8,16.23a10.65,10.65,0,0,1-3.71,10.54c-1.51,1.38-3.11,2.9-2.28,5.13A23.91,23.91,0,0,1,1199,144c-2.36,5.22-4.37,10.56-8.74,14.48l.33.39-.28.23a37.27,37.27,0,0,0,1.5,6.08l2,5.31,1.69,8.07,3.65,9.93,2.34,7.69,2,5.65,3.26,5.53,5.28,5.37a74.22,74.22,0,0,1,5.74-13.72c4.11-7.93,9.87-12.5,18-16.25,3.32-1.53,7.23-3.37,4.75-7.78-1.08-1.92,1.34-4.37,3-5,8-2.88,12.75-7.25,25-6.23,3.32.34,5.16-2.35,6.14-4.9A5.43,5.43,0,0,0,1272.29,152.29Z"/>
</g>
<g id="AL">
	<path class="state" d="M903.17,561.92v-7.61l5.17-1.81H922c5.72.32,12,.43,12.73.08,1.06-.71,5.87-.24,7.32-.07l5.5-.29,4.12-1.71h1.5v-4l-2-2.33v-9.39l-2.43-4.51,2.43-3.12V515.65l-3.67-4.12v-4.37l-2.67-4V492.44L942.5,487v-3.87l-2.67-5v-5.05l-1.67-5.77v-3.64L934,464.83H919.67l-6.91,1.33-8.38.83c-2,.2-8.63.79-9.7-.12-.64-.42-5.76-.29-10.51.08l0,11.51-1.65,6.27v53.94l.83,9.62V559l-.83,8c4.47,0,9,.08,12.19-4.83,1.6,3.15,4.65,3.69,6.71,5.18Z"/>
</g>
<g id="CT">
	<path class="state" d="M1189.31,267V253.06H1175.5l-14.67.67v22.52l2.11,0,3,1.23,2.63.47c-.17-1.65.42-3.46,2-3.74,6.28-1.16,13.58-2.78,20.22-2.83Z"/>
</g>
<g id="RI">
	<path class="state" d="M1215.35,254.87h-7.84l-3-3.58-11.22,1.77h-3v13.87l1.47,4.53c.58,0,1.16,0,1.72,0,19.45-1.8,10-2.73,14.25-7.5.56-.63,2.15,1.21,2.75.5s4.29-2.75,4.24-3.63A16.56,16.56,0,0,1,1215.35,254.87Z"/>
</g>
<g id="MD">
	<path class="state" d="M1130.47,342.83l-1.55-1.4-1.58-6.65-.83-3.84-1-6.59v-.06c.13-1.69.43-4.6,1-5.15a17.92,17.92,0,0,0-.1-4.15h-2.49l-5.11,1.15-3.15.5-2.25.85-4,.33c-.28,0-6.25.17-7.6,0-.79-.1-1.46,1.1-1.64,1.53l-.1.23-.25.06-4.16,1c-.4.1-1.36.25-2.29.39-.7.11-1.38.21-1.74.28a14.73,14.73,0,0,1-2.54,0,14.79,14.79,0,0,0-2.1,0,5.53,5.53,0,0,0-.91.43,5,5,0,0,1-2,.75c-.72,0-2.75-.12-3.36-.16a6.34,6.34,0,0,1-2.47,1.16h-5.11L1067,325l-6.08,1.84c-.24,0-5.87.5-6.88.5a8.12,8.12,0,0,0-2.69,1.26l1.18,2.45.64,2.55,1.27,1.41h2.28a8,8,0,0,0,3,.13,19.24,19.24,0,0,1,2.76-1.74l.1,0,6-1.73,1.85-1.76,4-.69h2.36l3.9-2.31,4.22-1.36h2.95L1091,328l3.95,2.41,3.2,2.33.4.4,0,0,.3.36,4.09,2.77,2.84,2.83.71,3.25v3l-.66,4.65.64,3.35,1.37,2.75,2.76.86.68,4.43,2.1,1.5,6.47,2.21a7,7,0,0,1,2.55-.76c1.38-.53,2.17-3.4,2.42-4.83.5-2.85,1.63-3.29,2.76-2.87v-.55l12.85-.07,2.9.86.51-1.4c1-2.73,2.09-5.44,3.32-8.06a10.1,10.1,0,0,0,.81-4.57Z"/>
</g>
<g id="ND">
	<path class="state" d="M575.83,152.32l-1.34,20.05v23.41l0,.1a27.69,27.69,0,0,0-2,5.12v5.68l5.5-1.51h16.67l10.66-1.34L621,205.34h34.29l17.88,1.5h8.27l2.67,1.67h10.3l5.67,1.33,8.26,1,1.79-3.58V195.78l-2-4v-4.45l-1.32-6.57-1.68-5.43V162.78l-2-4.23-2-4.68L699.5,147V134.1a52,52,0,0,1-7.27-.46c-8-1.13-16-.4-24.08-1.14-10.53-1-21.22,0-31.81-.48-16.07-.77-32.12-.63-48.2-.55-4.07,0-8.2.3-12.3.37Z"/>
</g>
<g id="MT">
	<path class="state" d="M362.85,119.94,364.5,127v6.25l2.62,7.53,3.63,5.62,2.7,5.71,3.63,5.63L381,162.3l5.16,3.78,0,5.13-2,4.28-2.63,13.17.9,3.61,3.32.91H388l1.69-3,3.1.44v10a45.5,45.5,0,0,1,3,6,31.27,31.27,0,0,0,2.93,5.18l2.7,5.39,2.61,4.56,3.26,2.61,1.89,1.89h11.69c1.21-.54,6.08-2.67,7.11-2.67.77,0,4.88-.43,6.94-.66H435l7,1.4.52-7.06H448l15.72,1.67h17.61l23,2,6,1.66H531l11.75,2L562,226.17h9.46V207.4l-.12-.42.12,0v-6c0-1,1.57-4.51,2-5.44V172.33l1.34-20.05V131.85a53.4,53.4,0,0,1-11.06-.89c-12.69-2.58-25.48-3.66-38.32-4.72-11.86-1-23.73-2-35.51-3.92-13.68-2.29-27.47-3.92-41.2-5.89-9.64-1.39-19.26-3-28.89-4.45-8.74-1.32-17.54-1.07-26.24-2.17a257.93,257.93,0,0,1-30.77-6.07Z"/>
</g>
<g id="MI">
	<path class="state" d="M930.78,201.29a30.68,30.68,0,0,0-7.2,10.07c-1.43,2.92-3,5.32-6.5,6.24a9.73,9.73,0,0,0-5.89,5c-2.69,4.78-4.31,10.33-7.5,14.53-5.79,7.6-5.08,15.34-2.16,23,3.2,8.46,2.82,16.95,2.29,25.57a23.21,23.21,0,0,1-2.56,8.92h33.69l1.67,2.49H948c1.48-.16,6.54-.63,7.61.08a6,6,0,0,0,2.48-.07,6.78,6.78,0,0,1,3.47,0,4.19,4.19,0,0,0,2.64.16l5.24-1.27c-.14-1.24.36-2.9,1.47-5,4.35-8.37,8.37-17,15-23.92,2.42-2.54,3-5.47,2.07-9.15-1.74-7-5.42-13.16-7.7-19.9-1.17-3.46-4.36-4.63-7.78-3.61-2.32.69-4.6.52-6.9.76s-2.81-.54-2.6-2.81c.46-5,.69-9.94.8-14.92s-2-9-6.75-11.22a89.17,89.17,0,0,1-9.09-5.05C940.28,196.53,936.13,196.67,930.78,201.29Z"/><path class="state" d="M834.92,186.9c2.65,1.56,5.85,3.25,6.41,3.26,1,0,7,2.53,8.2,3l8.27,2.31s5.31,1,7.6,1.32a32.74,32.74,0,0,0,5.88,0l.27,0,2.61,3.35v6l2.61,4.89,2.06,2.74V224l1.46-1,1.66-2.62h0a8.32,8.32,0,0,1,1-6.07c2-3.45,3.9-7,5.79-10.49,1.29-2.4,2.44-3.48,5.11-1.16,2.44,2.11,6.18,2.71,7.8-.48,1.88-3.7,4.86-4.07,8-4.89,2.57-.66,5.12-1.41,7.62-2.28,4.57-1.58,9.05-1.86,13.59.13,2.51,1.1,5.31,1.64,7.75.33,3.95-2.13,7.8-4.36,12.16-5.61,2-.57,2.76-2.38,2.89-4.28.16-2.38-2-2.47-3.47-2.77-3.39-.67-6.83-1.06-10.25-1.59-1.83-.28-12.1-5-12.42-5.92-1-2.75-3.17-3.62-5.73-4.19-5.42-1.19-10.48.37-15.29,2.38-8.16,3.42-16.11,6.87-25.3,4-2.42-.77-4.33-2.43-6.74-3s-6.05.22-7.31-2.17c-1.45-2.77,2.37-4.33,3.34-6.75s1.51-4.37-.79-6.2c-2.11-1.68-4.59-1.86-6.38-.13-3.82,3.71-8.77,6.19-12.16,10.13-4.44,5.17-10.09,8.63-15.25,12.76a11.31,11.31,0,0,1-4.7,2.58Z"/>
</g>
<g id="MN">
	<path class="state" d="M700.5,146.94l1.65,6.61,2,4.59,2,4.53v12.59l1.64,5.26,1.35,6.72v4.31l2,4v11.9l-2,4-1,10.44,1.24,2.78,3.09,2.81v12.1l1.67,5.05v13.59l1.23,4,9.8,2.58,12.54,1.65h48.6l10.9-2.15H809.5l-1.34-2.2v-7.33L806,251.34,802,248.11l-6-2-5-3.63-4.08-1.7-2.16-3.33-.67-4.33v-8.33l-1.33-4.41v-9.17l2.77-3.63,3-3.52,3.88-4.2v-13.5l3.29-3.62,6.36-3c0-.5.41-.86.76-1.21,3.51-3.51,6.7-7.39,11.68-9.08,5.44-1.85,9.63-5.8,14.25-9a5,5,0,0,0,2-5.75c-.61-2.07-2.73-2.22-4.52-2.39s-3.66,0-5.49-.06c-9.37-.19-18.74-.21-27.65-3.87-1.91-.79-4.25-1.53-4.81-3.27-2.16-6.67-7.84-6.12-12.91-6.79-2.7-.36-6-1.74-8,.72-1.84,2.29-3.4,1.38-5.16.78s-3.74-1.25-5.67-1.75c-5.16-1.35-10.2-3-10.6-9.75-.13-2.21-.95-4.22-3.88-4.23a4.29,4.29,0,0,0-4.61,4.26c-.16,3.18-1.88,3.6-4.36,4.24-5.12,1.33-10.22,0-15.33.33-5.75.4-11.54,1.16-17.3,1.25Z"/>
</g>
<g id="MS">
	<path class="state" d="M882.34,558.95V548.33l-.83-9.62V484.6l1.67-6.33V467H856.33l-10.53-.81-3.75,2.5-2.27,4.22-2.32,5.3L835,483.38l-4.67,4-3.55,4.53-2.61,7.51v17.31l.07.45h-.07v4l2,4.72.33,3.67-.38,4.93L824,538.76l-4.33,3.94-3.23,3.23-1.6,4.81v4.76l2.16,3.08,4.1,1.58h31.06l3.25,2.17,1.35,3.37,5.75,5.2a4.41,4.41,0,0,1,2.6-1.33c3.72-.8,7.65-.82,11.26-1.92a18.5,18.5,0,0,1,5.14-.62Z"/>
</g>
<g id="TX">
	<path class="state" d="M758.17,587l.75-4,2.87-4.14-1-3.57,1-4.13,1.7-3.75,2.27-4.22-1.31-8.84v-6.57l-4.33-5.67V527.33l-1.23-6.43h0l-.16-1h.08v-5.24l1.34-7.09v-5.67l-3.1-2.48-4.49-2.25-.35,0v-.1l-11.27-1.29h-5.28l-4.84,1-9.49,4.36H714l-13.05-1.34-10.33-1-10.4-2.34-10-2.33-12.36-3.67-10.71-4.35L640.5,484v-8.66c-.27-1.77-1.1-6.78-1.61-7.82-.69-1.38-.16-16.27-.05-19.24V437.69l-9.16.14a97.19,97.19,0,0,0-10.52,0c-1,.34-5.9.1-7.1,0l-6.73,2H598l-5.69.67-6-1.34H580.5v21.58l0,.07a65.37,65.37,0,0,0-2,7.18c0,1-1.8,15.42-2,17.06v15.6l-2,14.07v20.65l-.53,0c-6.39-.33-17-.64-18.08-.05-1.92,1-13.5-1.21-15.08-1.84-1.14-.46-6.47-.23-9.77,0H531l-8-1.67H503.07l-1.38,6.7a28.88,28.88,0,0,1,15,10.47c2.2,2.9,4.49,6,7.4,8,6.25,4.39,10,10.35,13.34,17,5.89,11.89,15.12,20.95,25.76,28.61,4.21,3,7,2.51,10.24-1.41a47.21,47.21,0,0,0,4.13-5.6,11.23,11.23,0,0,1,11.8-5.6c1.8.34,3.62.46,5.39.8,14.45,2.78,26.17,9.44,32.07,23.69a36.55,36.55,0,0,0,9.12,12.89,43.34,43.34,0,0,1,10.42,14.93c5.31,12.43,11.39,24.36,23.9,31.42a64.74,64.74,0,0,0,21.3,7.84c6.79,1.12,9.31-2.61,7.25-9.11-1.43-4.51-2.84-9-2.84-14,0-11.78,5.93-20.76,12.41-29.65,3.12-4.28,8.17-5.88,12.15-8.81,4.38-3.22,9.1-5.07,13.73-7.42,5.71-2.89,12.79-4.89,14.67-11.7,1.54-5.57,5.46-6.59,9.32-7.17Z"/>
</g>
<g id="LA">
	<path class="state" d="M872,591.6c-6.53-3.95-8.75-9.72-10-16.71a6.31,6.31,0,0,1,0-3.08l-6.09-5.51-1.32-3.3-2.75-1.83-31,0-4.48-1.72-2.51-3.59,0-5.32,1.7-5.11L819,542l4.28-3.9,1.91-3.88.33-4.57-.32-3.51-2-4.79v-4c-1.82.3-7.58,1.25-10.06,1.8-1.82.4-5.34.23-8.44.07a30.72,30.72,0,0,0-4.46-.07c-1.58.33-12.63,0-13.89,0H769.67l-9.75,1.58,1.25,6.49v14.59l4.33,5.67v6.83l1.35,9.09-2.41,4.48-1.65,3.64-.94,3.79,1,3.77-3.07,4.44-.65,3.56.06,6.56c.71-.1,1.41-.2,2.08-.32,14.34-2.54,28.89,1,43.47-1.06,6.14-.87,13.15.66,19.76,1,2.94.15,5.57.44,6.27,4.12a2.86,2.86,0,0,0,2.87,2.38c6.29-.2,12.39,1.31,18.58,2a2.76,2.76,0,0,0,3.19-1.85c.88-2.9,2.57-2,4.18-1,1.41.86,2.65,2,4,3,2.85,2.06,5.49,2.94,8.13-.56C875.17,596.79,875.78,593.87,872,591.6Z"/>
</g>
<g id="OR">
	<path class="state" d="M191.51,239.23l10.67,4,24.58,4.64,12.36,3,10,2.33,10.66,2.33,7.65,3h6.67l13.31,2,31.43,6.22v-6.19l2.67-4.67v-3.53l2-10.1,1.67-9,2.33-17,2.34-10.71,2-16,3.34-17.7v-3.07h-15l-3-1.67-9.71,0-4.56-1.63-3.49.32-3.78,1.34-5.5,0-4.61-1.65-15.27-1.66H260.9l-4.66-2-6.74.32-4.68,3.34h-5.35l-3.14-2.79-5.06-3-1.48-3.32,1.37-4.11v-8.94l-7.5-3.61-3.19-2.9h-8a7.41,7.41,0,0,1-1.91,2.69c-2.52,2.63-4.33,5.87-4.15,9.33.3,5.76-1.85,10.72-3.75,15.83a24.32,24.32,0,0,0-1.56,6.73c-.78,10.33-4.28,19.85-8.52,29.23-1.85,4.08-5.13,7.11-6.61,11.51-3.06,9.07-2.4,18.21-.86,27.07Z"/>
</g>
<g id="WA">
	<path class="state" d="M207.26,111.51c-.2,2.94-.24,6.35,2.37,8.3,3.49,2.61,3.08,5.55,1.59,8.75-.85,1.82-1.17,3.61.17,5.07a3.83,3.83,0,0,1,1.14,2.17h8.32l3.42,3.12,7.88,3.77,0,9.81-1.27,3.82,1.19,2.68,4.86,2.92,2.93,2.6h4.65l4.66-3.33,7.26-.35,4.68,2h9.23l15.5,1.7,4.59,1.64h5.16l3.71-1.33,3.78-.34,4.69,1.67h9.71l3,1.67h14.71v-5.28l6-26.37,2-11.61V111.67l2.15-12.88c-5.45-2-10.79-4.33-16.39-5.44-16.37-3.25-32.23-8.84-48.87-10.77-7.31-.85-14.06-3.77-21.18-5.34s-10.44.31-11.65,7.31c-.33,1.91-1.44,3.33-2.15,5-1.78,4.2-4.15,5.29-7.67,2.61a21.3,21.3,0,0,0-8.49-3.59,14.43,14.43,0,0,1-7.47-4.63c-4.15-4.47-9-4.95-13.8-1.58-4.16,3-6,8.79-3.63,13.3A29,29,0,0,1,207.26,111.51Z"/>
</g>
<g id="CA">
	<path class="state" d="M181.39,299.1c.35,5.88.64,11.64,3.09,17.35S190,327.39,192.41,333c1,2.42,1.53,5.12,3.71,6.84s5,1.53,7.74.78c-.34,4.52-1.1,8.29-4.19,11.28-1.61,1.55-1.39,3.62-.36,5.53,1.57,2.92,3.09,5.88,4.82,8.71a5.57,5.57,0,0,1,.67,4.74c-1.64,5.68-.27,10.91,2.8,15.67,4.15,6.43,7.34,13.37,10.71,20.19,2.32,4.68,4.79,9.56,4.74,15.06,0,4.83,2.31,7.61,6.32,10.35,4.94,3.38,10.91,3.87,15.76,7,6.2,4,10.8,10.12,17.73,13.16a7.61,7.61,0,0,1,1.86,1.65c5.37,5.12,9.78,11.28,16.63,14.78,1.42.73,2.24,2.26,3,3.84,4.06,8.47,9.63,15.91,19.06,18.34,7.16,1.84,14.44,3.93,21.93,4.07,3.26.06,7.11-.1,9.69-1.74a6.56,6.56,0,0,1,2.24-1l1.25-6.36v-4.27l1.5-3v-3.49l1.25-5.5,2-5.19,2-1.75,1.49-3.64,1.2-5.55-1.47-5.38-1.31-5.63v-6.87l-6.29-5.32-2.33-5.48-4.41-3.15-3.92-7.38L323,408.68l-7.54-9.18H312.5v-3l-12.88-15.19-9-12.36-9.31-10.63-7.6-6.71L263.59,337l-4.34-6.68-2.08-4.94v-9.77l3.67-16.67,2.34-8,1.65-9.61,2-11v-10.9l-7.35-2.88-10.59-2.31-10-2.33-12.34-3-24.64-4.66-10.66-4h-6q.22,1.22.46,2.43c1.41,7.18-.71,12-4.36,17.29-6.22,9-9.16,18.36-2.24,28.65C181.11,291.53,181.17,295.43,181.39,299.1Z"/>
</g>
<g id="AK">
	<path class="state" d="M164.69,656.83c1.71-7.64,6.19-12.13,13.52-13.91,1.23-.3,3.35-.78,3.07-2.66-.23-1.53-2.11-1.22-3.36-1.56-4.78-1.28-9.43-3.07-10.59-8.52a13.17,13.17,0,0,1,5.94-13.71c2.8-1.72,5.67-1.52,8.65-.78,1.21.3,2.27,1.53,3.76.65.36-2-1.4-2.86-2.19-4.19-2.23-3.77-1.92-9.66.93-12.86a4.44,4.44,0,0,1,5.22-1.55c6.44,1.88,8,1.15,11.85-4.37,2.16-3.12,5.26-4.41,8.54-6.12,6.6-3.44,13.9-4.2,20.75-6.16a24.35,24.35,0,0,1,19,2.84c.14.09.35.14.41.27,5.31,11,17.32,8.41,25.92,12.74a4.26,4.26,0,0,0,3.83-.43c7.41-3.71,16,1.18,15.84,9.32-.2,13.48,1.86,26.93,1.42,40.29-.34,10.28.65,20.48.27,30.76a263,263,0,0,0,1.35,38.66c.16,1.49.13,3.5,2,3.48,6,0,8.49,4.74,11.4,8.5,2,2.53,3.76,3.8,6.93,3.74,4.23-.08,7.35,1.71,8.27,6.23a6.28,6.28,0,0,0,2.23,3.81c4.39,3.42,6.07,8.5,8.65,13.14,3,5.37,6.22,10.65,11.65,14.45,4.74,3.32,9.47,7.42,8.74,14.51-.4,3.88-3.47,7.65-7.26,8.28-8.59,1.42-12.56-.58-15.74-8.93-1.06-2.79-3.65-3.67-5-5.88a147,147,0,0,1-8.87-16.19c-1.77-3.88-5.32-7.08-8.48-10.17-2.5-2.45-3.94-5.56-6.06-8.23-4.69-5.92-10.38-8.76-17.9-8.63-7.24.12-13.73-1.43-17.91-8.41-1.91-3.19-8.32-3.31-11-.84a21.12,21.12,0,0,1-9.1,4.92c-8.33,2.16-11.17-1-10.47-9.37.11-1.27.65-2.53-.24-4.12-5.58,7.22-9.47,15.73-18.72,19.89,2.5,1.77,4,1.34,5.65.29,2-1.27,4.24-1,6.33-.66a4.27,4.27,0,0,1,3.09,6.42c-2,3.57-4.74,6.33-9.05,7.17a58,58,0,0,0-8.15,2.29c-5.54,2-7.65.75-8.37-5.08a31.17,31.17,0,0,1,0-3.57c-9.24,5.9-19.64,6-30.14,6.35-5.43.16-10.74,2.43-15.23,5.44-2.72,1.83-4.91,1.6-6.74.08-3.16-2.62-6.5-5.3-8.13-9.3-1.71-4.2-4.64-5.56-9-4.64-8.65,1.81-12.48-.33-16.18-8.41-1.34-2.94-1.91-6.35-5.1-8.27a3.85,3.85,0,0,1-1.56-3c.22-3.07-1.21-4.64-3.68-6.22a5.57,5.57,0,0,1-2.09-7.1c1.16-2.47,3.05-5,6.18-5.23,3.29-.22,6.5,1.49,6.91,4.6.75,5.69,4.36,7.33,8.93,9.13,3.39,1.33,6.6,3.47,5,8.76-.78,2.61,3.7,4.36,4.18,7.46.63,4.08,3.72,3.85,6.75,4,4.15.17,8.68-1.21,11.73,3.47.89,1.36,3.09.43,4.53-.57,3.65-2.53,7.53-4,12.08-3a3.92,3.92,0,0,0,2.45-.23c8.06-4,16.44-7.54,22.39-14.79,1.8-2.19,2-3.43-1.31-3.63a42.38,42.38,0,0,0-4.94-.45c-8,.48-8.67-1.83-9.76-10.36-.51-4-1.51-6-5.89-6-8.45.13-10-7-12.55-12.76-1.46-3.27-1-6.85-.92-10.33a20.46,20.46,0,0,0-1.47-7.72c-1.48-3.9-2.94-6.65-8.1-5.3-3.06.8-5.28-1.92-6.35-4.56-1.15-2.82-2.85-6.41.24-8.74s1.81-3.89.08-5.84a9.09,9.09,0,0,0-1.11-1c-2.79-2.26-3.28-4.82-1.14-7.82,2.5-3.49,6-2.17,8.49-.88,5.27,2.68,6.36,7.74,2.74,12.62C159.93,652.25,161.57,654.32,164.69,656.83Z"/>
</g>
<g id="HI">
	<path class="state" d="M458,708.74c10.75-3.2,22.39,3.33,22.64,14.22.06,2.48.72,4,3.06,5,4,1.66,7.85,3.46,11.73,5.29a43.74,43.74,0,0,1,15.55,12c3,3.75,2.42,5.72-1.39,8.47-5.08,3.67-10.41,7.15-13.86,12.67-1.52,2.43-2.88,6.14-6.49,4.86-4-1.42-8.36-3.76-8.86-8.59s-1.29-9.45-3.8-13.72a5,5,0,0,1,0-5.29c3.81-5.23.18-10.6.32-15.85.09-3.24-4.29-2.72-6.06-1.65-3.37,2-7.21,1.76-10.63,3.21-2.28,1-5.15.22-5.53-1.81-.66-3.45-3.13-3.72-5.41-4.86a9.83,9.83,0,0,1-5.66-11c.23-1.41-.34-1.76-1.38-2.05-1.91-.54-3.81-1.14-5.74-1.61-2.24-.54-3.78-1.51-4.53-4-1.17-3.88-3.89-5.73-8-4.05-3.67,1.51-6.32.69-8.56-2.59-1.48-2.17-3.46-4-5.15-6-4-4.77-9.5-5.56-14.62-2-4,2.75-11.12,1.76-13.72-2.53-2.21-3.63-4.18-3-5.61-.16-1.82,3.63-4.26,4.15-7.19,2.25-3.25-2.11-1.83-4.93-.13-7.35,1.29-1.85,2.33-4.64,5-4.23,4.8.73,8.45-1.86,12.49-3.43,4.33-1.68,7.39-.71,9.89,3,4.65,6.87,12.28,8.92,19.59,5.25,4.22-2.12,6.48-1.05,7.67,3.55s1.62,9.67,7.62,11a6.91,6.91,0,0,0,3.38.37c8.49-2.26,14.82,2.86,21.54,6.43C457.94,704.36,457.82,706.66,458,708.74Z"/>
</g>
<g id="ID">
	<path id="_Path_" data-name="&lt;Path&gt;" class="state" d="M436.84,285V271.6l2.33-9v-5.28l2-15.07v-6.6l.77-10.44-7-1.39c-.74.08-6,.66-7,.66a45.62,45.62,0,0,0-6.8,2.62l-.2,0H408.79L406.65,225l-3.41-2.77-2.67-4.67-2.68-5.36c-.25-.36-2.69-4.06-3-5.44a46,46,0,0,0-2.95-5.87l-.07-.12v-9.37l-1.56-.22-1.64,3-3.09,0-3.95-1.08-1.1-4.39,2.72-13.55,2-4.23v-4.3l-4.88-3.6-4-4.67-3.71-5.74-2.7-5.71-3.69-5.72-2.69-7.83v-6.28L361.85,120V103.49q-5.7-1.45-11.36-3c-1.42-.39-2.81-.85-4.21-1.34l-2.12,12.63v12.92l-2,11.72-6,26.34V172l-3.34,17.76-2,16-2.34,10.71-2.33,17-1.67,9-2,10v3.7l-2.67,4.67v6.15l10,2.57,8.34,2.34,6.8,1.18a33,33,0,0,0,5.4,1.8c1,0,6.53,1.15,7.38,1.33l2.82,0,3.57,1.62h3.34l9.27,2.24,0-.09.4.19,7.94,1.65,9.32,1.66H405l9.09,1.67H435.5Z"/>
</g>
<g id="UT">
	<path id="_Path_2" data-name="&lt;Path&gt;" class="state" d="M435.5,286.17H414l-9.09-1.67H394.33l-9.42-1.67-7.63-1.59-1,2.13v10.77l-1.75,3v8.36l-1.25,22-2.5,16L369,356.07v16.18l-2.51,13.34v7.1l-2,2.25v.89l7.59,1.34h7.65l7.61,2.32c.93-.19,6.28-1.23,9.18.06s11.13,2.62,11.21,2.63l9.34,1.67,6.68,1.34h5.64l5.74,1.69,10.6,1.65h4l5.33,2.33,8.07,0,0-6,2-5.59v-6.69l2-8.61V362.67l1.34-15.51,1.33-21.52v-7.39l1.15-3.16c-4.16-.49-27.66-3.26-30.65-3.26a10.7,10.7,0,0,1-5.61-1.42l-.25-.17,2.31-24.09Z"/>
</g>
<g id="MO">
	<path class="state" d="M859.1,419.5h-2.31L854.31,417l-1.81-2.53v-8.6l-2.83-2.52-3-3.64-2.57-1.29L840,396.61l-3.82-3.73V374.55a22.69,22.69,0,0,1-4.76-.05,8.08,8.08,0,0,1-4.1-2.14s-3.64-3.31-4.94-4.28-4.16-6.24-4.48-6.83l-2-3.31-3-6.87-3.12-6.77.85-1.21-2.88-1c-1.4-.89-3.76-2.36-4.09-2.51s-2-.77-2.4-.92H778.17l-15.8,1H731a8.1,8.1,0,0,1,2.47,2.49c.78,1.55,4.48,4.49,5.85,5.49l.08.08,3.82,4.5.34,0,0,.4,2.66,7.73v2.56l2,4.23,2.71,3.71v65.85h10.5L779,435.17l10.08.76c5.06.11,11-.09,11.61-.62,1-1,11.72-2.16,15-2.47h.13l11.33,1.93h5.4L836,437l-1.85,3.5-.61,2.43.78,1.56H837c1,0,3.15,1.35,3.82,1.79h8.62l.4-2.7,1.71-9.25,2.47-1.41,1.93-2,4.46-1.68,3.08-2.47v-2.08Z"/>
</g>
<g id="IA">
	<path id="_Path_3" data-name="&lt;Path&gt;" class="state" d="M762.33,338.62l15.8-1h23.29l.08,0s2,.75,2.52,1,3.47,2.09,4.19,2.55l3,1,3.38-4.83,1.91-3.83v-4.22l-.34-4,.7-4.45,3.1-3.53,5.69-5.69,3.59-3.27,1.6-4.49a28.68,28.68,0,0,0,0-5.44c-.25-1-2.17-3.31-2.89-4.12l-2.75-3.46-2.2-5h-.17v-.36l-8.92-13.86-3.8-6.26H797.33l-10.9,2.15H737.67L725,265.83l-9.72-2.56-1.49,3.27-1,3.51.33,4.92-.67,8.74.32,6.54.1,0,0,.25,2.57,2.91,2,3.67,2,5.05,1.7,6.52V321a28.61,28.61,0,0,1,1.67,5.34,49.59,49.59,0,0,0,1.3,5.79l3.55,5.49c.28.14,1,.51,1.79,1Z"/>
</g>
<g id="NH">
	<path id="_Path_4" data-name="&lt;Path&gt;" class="state" d="M1181.39,174.57v7.24l-3.3,5.18-3.63,5.21-1.61,6.42c.31.78,1.64,4.26,1.64,6.25a85.37,85.37,0,0,0,1,9.67c.29,1.48,1.28,9.11,1.55,11.2l6.19-1.24h9c.58-.17,4.7-1.36,6.22-2,1.71-.68,10,1.17,11.8,1.58.15-1.41.37-2.85.47-4.36a32.63,32.63,0,0,1,1-5.9l-5.81-5.93-3.33-5.67-2-5.75-2.34-7.69-3.66-10-1.69-8.07-2-5.26a31,31,0,0,1-1.54-6.25,19.56,19.56,0,0,1-2,1.39c-3.82,2.31-8.49,5.15-5.63,11.34A2.08,2.08,0,0,1,1181.39,174.57Z"/>
</g>
</svg>
