<svg xmlns="http://www.w3.org/2000/svg" viewBox="0 0 1264 772">
	<g id="USA" class="cls-2">
		<path class="" d="M1177.6,3.61a11.18,11.18,0,0,1,5.93,1.67,13.6,13.6,0,0,0,7.3,2,27.53,27.53,0,0,0,6.65-1,32.16,32.16,0,0,1,7.71-1.11c7.28,0,11.5,4,14.35,13.1,3.25,10.4,4.87,21.07,3.3,32a22.76,22.76,0,0,0-.32,4.47c.44,7.7.79,8.09,8.44,8.14a7.54,7.54,0,0,1,6.41,3.1c4.53,5.76,9.26,11.26,16.27,14.33,3.37,1.48,5.78,4.34,5.07,8.33-.75,4.26-4.35,6.74-8,7.48a155.33,155.33,0,0,0-33.92,11.67c-3.72,1.72-6.63,3.26-6.21,8.27.37,4.47-3.42,6.48-6.77,8.47-10.28,6.12-19.39,13.75-26.37,23.39-9,12.4-13.08,26.38-10.25,41.86,1.11,6.1,5.73,9,10.6,11.72a3,3,0,0,0,1.41.42c1.13,0,1.85-1,2.44-2.24,1.17-2.5,2.7-4.45,5.25-4.45a6.54,6.54,0,0,1,2.14.4c3.58,1.24,6.52,6.54,5.73,10.09-1.76,7.91-6.63,12.27-14.81,13.25-7.93,1-9.74,2.58-11.74,10.52-.2.8-.19,1.86-.7,2.36-5.37,5.23-8.6,12.85-16.83,14.92a24.16,24.16,0,0,1-5.72.56c-4.59,0-9.81-.7-13.52-.89-.69,0-1.41-.05-2.14-.05-16.24,0-42,8.3-21.79,8.3,4.67,0,11.77-.44,22-1.52.06,6.91-3.49,10.11-10.19,12.81-7.89,3.18-16.43,3.53-24.2,6.8-4.91,2.07-5.86,4.12-3.39,8.91,3,5.82,2.24,11.34.34,17.35-3.37,10.63-9.39,20-15.75,28.63-3.54,4.78-3.26,9.23-4.9,13.79-5,13.76-10.51,27.32-18.6,39.62a6.3,6.3,0,0,1-8.77,2.36c-3.47-2-5.1-5.23-3.13-9.35,1-2.1,2.11-4.17,3-6.34a3.68,3.68,0,0,0-1.78-4.72,2.61,2.61,0,0,0-1.31-.43c-1.23,0-1.75,1.45-2.33,2.54a13.88,13.88,0,0,1-5.84,6c-2.1,1.09-2.62,2.56-1.08,4.4,3.33,4,5.19,7.72.11,12-1.76,1.47.34,2.13,1.63,2.33,4.27.68,8.53,1.47,12.83,1.86,4.91.44,7.48,2.9,8.23,7.73a69.85,69.85,0,0,0,2,7.17c1.23,4.6,1.16,8.89-2.79,12.38-1.85,1.63-2.7,3,.83,3.92,7.07,1.86,9.27,8.63,4.83,15-2.58,3.68-5.73,7.06-9.93,8.92-2.89,1.28-3.45,2.66-.91,4.53,3.74,2.75,5.82,6,4,10.68-1.84,4.82-4.94,8.25-10.37,8.25l-.81,0q-.92-.05-1.81-.05c-12.26,0-20.51,7.62-28.44,15.87-4.38,4.56-8.68,9.21-13.12,13.71a15,15,0,0,1-10.84,4.45h-1c-5.28,0-7.81,3.1-9.61,7.36-5.1,12-12.27,22.14-24.95,27.12-6,2.34-9,7.55-11.75,12.51-6.19,11-15.6,18.87-24.78,27a10,10,0,0,0-3.8,8.61,129.46,129.46,0,0,0,9.17,43.59c8,20.58,16.68,40.88,24.85,61.39,2.14,5.38,5.3,10.36,8,15.54,5.86,11.39,6.89,23.86,5.21,36A43.45,43.45,0,0,1,950,763.25c-2.86,3.71-7.67,5.46-12.68,5.46-6.61,0-13.55-3-16.8-8.67-3.43-5.93-8.31-10.37-13.64-14.24-6.8-4.94-12.42-10.43-14.43-19a15.88,15.88,0,0,0-6.61-9.56c-6.48-4.64-8.6-11.93-9.78-19.39-.43-2.7-.9-5-2.73-7.25-3.79-4.62-4.78-10.06-3.83-16,1.73-10.83-1.17-19.62-11.08-25.61a224.92,224.92,0,0,0-24.23-12.85,17.42,17.42,0,0,0-7.15-1.53,18,18,0,0,0-6.08,1.07,31,31,0,0,1-10.6,1.88c-8.3,0-16-3.31-23.66-7.24-5.5-2.82-11.06-5.5-17-7a32.14,32.14,0,0,0-8-1A33.93,33.93,0,0,0,748.58,625a11,11,0,0,1-4.2.95,7.81,7.81,0,0,1-5.83-2.73c-2.39-2.51-6.43-2.81-8.59-5.85a2,2,0,0,0-1.39-.56,1,1,0,0,0-.36.06c-9.83,4-20.27,2.14-30.39,3.25-.83.09-1.66.11-2.49.19-3,.28-4.56,1.58-3.77,4.94a20.8,20.8,0,0,1,.45,5.94,15.56,15.56,0,0,0,4.55,12.56c5.82,6.12,3,14.83-5.21,17.62a4.79,4.79,0,0,1-1.55.28c-1.67,0-2.9-1.05-4.13-2.32-1.71-1.77-3.13-3.16-5.24-3.16a8.25,8.25,0,0,0-3.94,1.25,8.3,8.3,0,0,1-4.1,1c-3.49,0-7.37-1.51-10.92-2.18-.48-.09-.89-.55-1.36-.6-6.2-.75-12.35-1.31-14.54-8.93-.42-1.45-3.21-1.39-5.06-1.46-6-.24-12-2.3-17.67-2.3-.53,0-1.05,0-1.57.06-1.22.09-2.43.13-3.63.13-13.15,0-25.55-4.85-38.6-5h-.31c-6.23,0-11.83,2.29-17.74,3.4a5.43,5.43,0,0,0-2.83,1.92c-7.94,9.74-18.64,15.31-29.95,19.94-16.68,6.83-27.5,19.53-33.82,35.74-3.47,8.89-3.9,18.8-3.29,28.52a24.19,24.19,0,0,1-.28,6c-.79,4.16-3.69,6.74-7.55,6.74a9.51,9.51,0,0,1-1.88-.19c-8.87-1.79-16.13-6.67-23-12.31-13.87-11.3-17.87-27.63-22.25-43.65-1.4-5.12-3.17-10-6.41-13.92-6.67-8-10.4-17.27-14.09-26.73-6.72-17.22-20.49-24.85-37.94-27.26a8.66,8.66,0,0,0-1.18-.08,8.48,8.48,0,0,0-6.33,3.13c-3,3.17-5.94,6.32-9.16,9.2-2,1.76-3.72,2.65-5.4,2.65s-3.54-1-5.39-3.12c-10.42-11.78-19.82-24.09-23.73-39.9-1.52-6.17-4.11-12.24-9.4-16.68-4.42-3.72-6.16-9.41-9.22-14.14-5.12-7.92-11.69-12.94-21.42-13.59-4.46-.3-8.84-1.58-13.29-2.27a23.08,23.08,0,0,0-3.5-.33,8.61,8.61,0,0,0-6.93,3.1,7.16,7.16,0,0,1-5.39,2.5,7.62,7.62,0,0,1-4.66-1.65c-4.32-3.33-9.21-3.28-14.15-3.91-14.31-1.81-28.59-3.84-42.86-5.88a7.56,7.56,0,0,1-3.52-1.75q-23.69-19.87-47.31-39.84a27,27,0,0,1-7.22-9.44c-.93-2-2.34-3.26-4.2-3.26a4.8,4.8,0,0,0-1.37.21,17.35,17.35,0,0,1-5,.71c-4.2,0-8.25-1.35-12.17-2.48-12.67-3.67-24-9.22-26.89-24.2a14.22,14.22,0,0,0-5.74-9.05,21.27,21.27,0,0,1-5.59-7c-5.29-9.67-14.59-15.78-21.17-24.3a21.07,21.07,0,0,0-9.37-6.45c-4-1.55-7.1-4.34-10.06-7.27-1.92-1.9-3.59-4.29-3-7.12,2.37-11.12-2.29-20.94-5.49-31-1.51-4.76-3.44-9.38-5-14.12-1.06-3.18-2.1-6.76-.69-9.79,2.74-5.88.75-11-1.5-16.2-1.92-4.41-2-8.09,1.7-11.81,2.8-2.79,2.6-6-1.17-8.27a9.33,9.33,0,0,1-4.11-5.49c-2.6-8.95-5.5-17.83-7.49-26.91a38.46,38.46,0,0,1,0-13.8c.7-4.49.62-8.8-1.33-12.69C2,232.19,5.81,222.1,12.83,212.38c1.56-2.15,2.8-4.53,4.41-6.65,2-2.63,1.76-5.41,1.59-8.5-.65-12.41-3.17-24.87,1.84-37.14,1.78-4.37,5.29-7.13,7.57-11a89.37,89.37,0,0,0,11-29.25,45.29,45.29,0,0,1,4.6-14.09,24.33,24.33,0,0,0,2.74-11.54A16.47,16.47,0,0,1,51,83.43c1-1.1,3-2.32,2.18-3.62-2.63-4.17,0-7.67.81-11.41.33-1.49.67-3.05-.62-4.22C49.86,61,50.74,56.94,51.36,53c.82-5.17,1-10.13-1.55-15.06-4-7.63,5.19-18.22,13-18.47h.16c2.47,0,4.26,1.81,5.43,3.76a12.18,12.18,0,0,0,8.36,5.7,8.56,8.56,0,0,1,2.72,1.16c1.31.85,2.42,2.61,3.95,2.61a2.33,2.33,0,0,0,1.14-.32c2.35-1.29,2.64-4.17,2.75-6.59.27-6.39,2.35-9.35,7.59-9.35a18.9,18.9,0,0,1,2.75.22c11.48,1.69,22.84,4.06,34.25,6.21,9,1.7,17.49,5.17,26.63,6.41,7.72,1,15,4.29,22,7.78,3.52,1.76,7.33,2.23,11,3.18,14.77,3.83,29.39,8.12,44.86,9,12.41.71,24.72,3.3,37.08,5,9.56,1.28,19.27,1.77,28.68,3.73,15,3.12,30.13,5,45.23,7.21,9.87,1.46,19.82,2.36,29.76,3.26a92.69,92.69,0,0,1,16.28,2.44,20.23,20.23,0,0,0,5.26.79h.63c7.91-.37,15.82-.5,23.72-.5,11,0,22,.25,32.95.47q4.54.09,9.09.08c10.62,0,21.24-.28,31.85-.28,6.12,0,12.23.09,18.33.39,5.54.27,11.06.43,16.56.43A224.34,224.34,0,0,0,555.9,71a20.09,20.09,0,0,1,2.16-.11c3.15,0,6.31.6,9.51.6a18.77,18.77,0,0,0,3.76-.35c2.87-.58,4.51-1.52,4.68-4.67.13-2.58.93-5.08,4.08-5.47a5.62,5.62,0,0,1,.7,0,4.94,4.94,0,0,1,4.8,4.19c2.32,11.53,12.47,11.47,20.62,14.39a2.68,2.68,0,0,0,.87.14,1.83,1.83,0,0,0,1.06-.27,12.75,12.75,0,0,1,8-2.7c4.49,0,9,1.87,13.46,2.45a4.89,4.89,0,0,1,4.52,4.63c.33,3.3,2.67,4.64,5.48,5.76,10.09,4,20.78,4.18,31.36,5.1l.42,0c.5,0,1-.06,1.51-.06a4.47,4.47,0,0,1,.56,0c3.36.43,7.73-.36,9.12,3.53,1.54,4.29-1.24,7.82-4.68,10.15-5.35,3.62-10.35,7.78-16.62,10-4.11,1.46-7,4.76-10,9.31A32.76,32.76,0,0,0,663.58,125a12.53,12.53,0,0,1,4.61-1.26c2.23,0,3.6,1.48,5.34,4.81,1.39,2.65,3.19,4.06,5.32,4.06a7.29,7.29,0,0,0,4-1.46c7-4.74,13.89-9.5,19.83-15.75,5-5.23,11.28-9.21,17.14-13.55a5.14,5.14,0,0,1,3.1-1A6.74,6.74,0,0,1,726.5,102c2.4,1.49,3.06,3.9,2.6,6.54a16.81,16.81,0,0,1-3.36,7.18c-1.33,1.77-1.72,3.71,1.06,4,4.6.51,8.61,2.66,12.75,4.27a23.07,23.07,0,0,0,8.46,1.62,31.72,31.72,0,0,0,13.21-3.3,88.13,88.13,0,0,1,21.23-6.91,17.86,17.86,0,0,1,3.14-.3c2.65,0,5,.72,6.61,2.57,2.9,3.43,6.88,4.29,10.29,6.43a8.74,8.74,0,0,0,4.75,1.41,11.11,11.11,0,0,0,2.9-.41c1.43-.39,3.08-1.15,4.53-1.15a2.85,2.85,0,0,1,2.7,1.7,8.11,8.11,0,0,1-1.71,9.29c-5.67,5.22-10.7,11.49-19.59,11.49-.63,0-1.29,0-2-.1q-1.88-.19-3.77-.18a45.22,45.22,0,0,0-23,6.61c-4.6,2.76-8.18,6.87-13.38,6.87a11.69,11.69,0,0,1-4.33-.89l-.1,0c-.51,0-1.64,1.06-2.09,1.79-2.44,4-4.81,8-7.07,12.06-.89,1.6-1.53,3,.91,4.51,4.13,2.47,5.08,6.34,2.76,10.7-5.8,10.86-6.25,22.56-6.2,34.46,0,11-.81,22.05-4.08,32.59-3,9.62.75,17.28,5.68,24.72a4.23,4.23,0,0,0,3.7,1.82,9.51,9.51,0,0,0,6.93-3.58c6.2-7.62,8.3-16.53,8.69-26,.32-8,.37-15.79-1.9-23.74-2.74-9.6-2.27-19.18,3.4-28.33,3.63-5.86,5.51-12.76,9.29-18.71,2.36-3.7,5-6.58,9.38-7.58,3.32-.75,5.39-3.07,6.89-6,1.89-3.7,3.71-7.47,6.65-10.5,4.9-5.07,9.45-7.76,14.39-7.76,4,0,8.29,1.78,13.21,5.51a18.53,18.53,0,0,0,4.1,2.8c11,4.29,13,13.35,12.61,23.6a89.92,89.92,0,0,1-1,10.44c-.4,2.63.31,4.11,2.35,4.11a6.09,6.09,0,0,0,1.38-.18,31.55,31.55,0,0,1,6.9-1c5.46,0,7.41,3.38,10.61,12.86q2.8,8.27,5.44,16.59c1.62,5.1.7,9.46-2.62,14-7.28,9.93-12.5,21.15-18.22,32-3.17,6-1.42,8,5.45,8.07h.15c7.56,0,12.54-5.24,18.5-8.65,11.33-6.49,22.24-13.58,35.26-17.06,9.41-2.52,17.43-8.82,24.23-16.12,3.63-3.89,6.94-8.06,11-11.61,2.6-2.3,4.43-5,1.8-8.62-.56-.77-.59-1.91-1-2.8-4.33-8.66-3.67-12.65,7.67-16.45,14.23-4.77,29-7.42,43.5-11.08,5.11-1.29,10.5-1.27,15.73-2.44,6.62-1.48,9.24-3,8.72-9.82-1.48-19.33,10.85-30.69,23.06-42.41,9.81-9.41,22.5-9.38,34.55-10.2,9.62-.65,19.21-1,28.64-3.12a23.18,23.18,0,0,1,5.15-.61,19.34,19.34,0,0,1,3.77.36,20.36,20.36,0,0,0,4,.37,61.3,61.3,0,0,0,6.9-.57c3.94-.45,5.19-2.53,4.1-5.64-1.73-5,.67-8,4.07-10.67,2.85-2.22,5.3-5.1,9.07-6a3.75,3.75,0,0,0,2.41-1.59c2.8-6.73,7.16-12.6,10.07-19.36,3.63-8.41,2.9-16.14.3-24.19-1.39-4.31.21-7.1,3.93-9,5.19-2.67,6.59-6.66,5.69-12.42-1.6-10.21,2.7-18,11.83-22.56a17,17,0,0,1,7.5-2m0-1a17.88,17.88,0,0,0-7.94,2.1c-9.6,4.81-14,13.2-12.37,23.61.89,5.66-.66,9.06-5.16,11.38s-5.88,5.69-4.42,10.21c2.92,9,2.84,16.29-.27,23.49a94.67,94.67,0,0,1-4.9,9.36,90.53,90.53,0,0,0-5.18,10,3,3,0,0,1-1.72,1c-3.1.74-5.33,2.67-7.48,4.53-.64.56-1.31,1.13-2,1.65-3.31,2.58-6.41,6-4.4,11.79a3.3,3.3,0,0,1,0,2.85c-.61,1-2.12,1.34-3.27,1.47l-.92.11a50.79,50.79,0,0,1-5.87.46,19.31,19.31,0,0,1-3.79-.35,20.44,20.44,0,0,0-4-.38,24.29,24.29,0,0,0-5.38.63c-7.89,1.8-16.1,2.31-24,2.81l-4.46.29-3.07.2c-11.24.69-22.86,1.41-32.1,10.28l-.8.77c-11.82,11.34-24,23.06-22.56,42.44.46,6-1.38,7.3-7.94,8.77a70.44,70.44,0,0,1-7.39,1.11,63.41,63.41,0,0,0-8.37,1.33c-4.69,1.18-9.49,2.28-14.14,3.34-9.72,2.22-19.77,4.52-29.43,7.76-6.05,2-9.13,4.11-10.31,6.95-1.35,3.26.19,7.17,2.06,10.9a5.76,5.76,0,0,1,.35,1.05,5.49,5.49,0,0,0,.78,1.89c1.83,2.51,1.35,4.62-1.66,7.28a92.2,92.2,0,0,0-7.76,8.05c-1.06,1.2-2.16,2.44-3.27,3.63-7.91,8.49-15.68,13.67-23.76,15.83-11.24,3-21,8.74-30.53,14.28q-2.48,1.45-5,2.88c-1.6.92-3.13,2-4.62,3-4.17,2.85-8.12,5.54-13.39,5.54h-.14c-3.29,0-5.17-.51-5.75-1.48s-.14-2.62,1.18-5.12c1.16-2.2,2.31-4.44,3.43-6.62,4.4-8.56,8.95-17.41,14.71-25.28,3.56-4.86,4.44-9.58,2.76-14.87S860,212.81,858,206.91c-3.11-9.2-5.27-13.54-11.56-13.54a32.1,32.1,0,0,0-7.13,1.08,5.13,5.13,0,0,1-1.15.15c-.77,0-1-.28-1.08-.37a3.52,3.52,0,0,1-.27-2.6,91.08,91.08,0,0,0,1-10.56c.3-8.92-.93-19.76-13.24-24.57a11.89,11.89,0,0,1-2.92-1.92l-.94-.74c-5.07-3.84-9.59-5.71-13.81-5.71-5,0-9.79,2.56-15.11,8.06-2.87,3-4.71,6.59-6.49,10.1l-.33.64c-1.61,3.15-3.58,4.9-6.22,5.5-5,1.14-7.78,4.53-10,8a70.39,70.39,0,0,0-4.88,9.76,69.53,69.53,0,0,1-4.42,9c-5.37,8.67-6.55,18.47-3.51,29.13,2.27,8,2.16,15.93,1.86,23.42-.44,10.77-3.12,18.85-8.46,25.42a8.54,8.54,0,0,1-6.15,3.21,3.29,3.29,0,0,1-2.86-1.37c-5.3-8-8.28-15.12-5.56-23.87,2.87-9.25,4.18-19.71,4.13-32.89-.05-11.83.38-23.33,6.08-34,2.57-4.82,1.41-9.31-3.12-12-1.65-1-1.43-1.58-.55-3.16,2.13-3.84,4.43-7.77,7-12a4.94,4.94,0,0,1,1.24-1.27,12.46,12.46,0,0,0,4.43.86c4.05,0,7.2-2.3,10.25-4.52,1.17-.85,2.38-1.73,3.64-2.49a44.44,44.44,0,0,1,22.5-6.47c1.23,0,2.47.06,3.67.18.69.07,1.39.1,2.06.1,8,0,13-4.83,17.9-9.5.78-.75,1.58-1.52,2.38-2.26a9.11,9.11,0,0,0,1.92-10.5,3.84,3.84,0,0,0-3.58-2.23,11.26,11.26,0,0,0-3.49.78c-.46.15-.89.3-1.3.41a10.06,10.06,0,0,1-2.64.38,7.77,7.77,0,0,1-4.22-1.26,35.55,35.55,0,0,0-3.64-1.91c-2.38-1.13-4.62-2.2-6.42-4.32-1.62-1.91-4.17-2.92-7.38-2.92a18.86,18.86,0,0,0-3.32.31,89.17,89.17,0,0,0-21.47,7A30.33,30.33,0,0,1,748,124.59a21.94,21.94,0,0,1-8.1-1.55c-1-.38-2-.8-2.92-1.2a36.13,36.13,0,0,0-10.08-3.13c-.62-.07-1.07-.25-1.16-.46s.07-1,.79-2a17.75,17.75,0,0,0,3.55-7.61c.57-3.29-.51-6-3.06-7.56A7.74,7.74,0,0,0,723,99.87a6.18,6.18,0,0,0-3.7,1.22c-1.36,1-2.78,2-4.15,3-4.55,3.24-9.25,6.59-13.12,10.67-6.05,6.38-13.29,11.28-19.67,15.61a6.36,6.36,0,0,1-3.47,1.28c-1.72,0-3.21-1.19-4.43-3.52-1.73-3.3-3.37-5.34-6.22-5.34a13.11,13.11,0,0,0-5,1.34,30.68,30.68,0,0,1-9.91,2.4c2.47-3.49,5-6,8.36-7.25,5-1.79,9.27-4.8,13.38-7.71,1.13-.8,2.3-1.63,3.47-2.42,4.73-3.2,6.53-7.22,5.06-11.31-1.33-3.71-4.93-3.89-7.83-4-.75,0-1.45-.07-2.11-.15a5.42,5.42,0,0,0-.69,0c-.27,0-.54,0-.82,0l-.7,0h-.33c-1.74-.15-3.48-.28-5.22-.41-8.64-.65-17.56-1.32-25.86-4.62-2.88-1.15-4.59-2.32-4.86-4.93a5.89,5.89,0,0,0-5.39-5.52,49.55,49.55,0,0,1-5.36-1.12,34.75,34.75,0,0,0-8.22-1.34,13.79,13.79,0,0,0-8.64,2.9,1.19,1.19,0,0,1-.45.07,1.7,1.7,0,0,1-.53-.08c-1.7-.61-3.5-1.1-5.24-1.57-6.69-1.81-13-3.52-14.74-12.08a5.93,5.93,0,0,0-5.78-5A6.65,6.65,0,0,0,580,60c-3.09.39-4.75,2.54-5,6.41-.12,2.31-1,3.15-3.88,3.74a17.74,17.74,0,0,1-3.56.33c-1.56,0-3.15-.15-4.7-.3s-3.2-.3-4.81-.3a20.93,20.93,0,0,0-2.27.12,222.27,222.27,0,0,1-24,1.21c-5.15,0-10.55-.14-16.51-.43-5.5-.27-11.34-.39-18.38-.39-5.31,0-10.71.07-15.94.14s-10.61.14-15.92.14c-3.28,0-6.25,0-9.07-.08l-4.24-.08c-9.41-.19-19.15-.38-28.73-.38-8.77,0-16.55.16-23.77.5h-.59a19.17,19.17,0,0,1-5-.76,92.52,92.52,0,0,0-16.18-2.45l-.27,0-.43,0c-9.62-.88-19.58-1.78-29.27-3.22-3.5-.52-7-1-10.5-1.51-11.4-1.62-23.19-3.3-34.66-5.69a188,188,0,0,0-18.74-2.6c-3.29-.34-6.69-.7-10-1.14-4.11-.55-8.29-1.21-12.32-1.86-8.11-1.29-16.51-2.63-24.83-3.11-13.5-.78-26.62-4.23-39.31-7.58l-5.36-1.4c-1-.26-2.05-.49-3.06-.71a33,33,0,0,1-7.73-2.39c-6.94-3.47-14.44-6.82-22.29-7.88a107.29,107.29,0,0,1-14.74-3.43c-3.84-1.09-7.81-2.21-11.84-3l-8.45-1.62c-8.44-1.63-17.17-3.32-25.83-4.6a20,20,0,0,0-2.89-.23c-7.23,0-8.39,5.51-8.59,10.31-.1,2.25-.35,4.73-2.23,5.76a1.36,1.36,0,0,1-.65.19c-.62,0-1.28-.62-2-1.28A10.7,10.7,0,0,0,80,29.24a9.5,9.5,0,0,0-3-1.29,11.21,11.21,0,0,1-7.72-5.24c-1.67-2.78-3.84-4.24-6.29-4.24h-.2c-4.69.15-10,3.74-12.92,8.74-2.3,3.95-2.62,7.92-.91,11.2,2.52,4.82,2.19,9.79,1.45,14.44l-.1.62c-.61,3.77-1.3,8,2.47,11.47.82.75.66,1.73.32,3.27a24.17,24.17,0,0,1-.83,2.72c-1,2.78-2.07,5.93.15,9.44.18.28-.68,1.07-1.18,1.54a12.53,12.53,0,0,0-.9.89,17.32,17.32,0,0,0-4.73,11.43c-.12,4.66-.93,8.07-2.62,11.07a46.76,46.76,0,0,0-4.71,14.39A88.74,88.74,0,0,1,27.38,148.6a34.66,34.66,0,0,1-3.14,4.25,26.83,26.83,0,0,0-4.5,6.85c-4.1,10-3.26,20.27-2.44,30.17.2,2.43.41,4.94.54,7.41l0,.39c.15,2.81.28,5.23-1.41,7.46-.89,1.17-1.68,2.43-2.44,3.64-.63,1-1.29,2.06-2,3C6.16,219.91.29,231,7,244.46c1.62,3.24,2,7.08,1.23,12.09a38.68,38.68,0,0,0,0,14.17c1.5,6.85,3.55,13.69,5.52,20.29.67,2.23,1.33,4.45,2,6.68a10.35,10.35,0,0,0,4.55,6.06c1.55,1,2.44,2.07,2.58,3.23a4.5,4.5,0,0,1-1.59,3.48c-3.68,3.67-4.25,7.53-1.91,12.92s4,10,1.51,15.38c-1.54,3.3-.52,7,.64,10.53.73,2.2,1.55,4.41,2.34,6.54.92,2.47,1.86,5,2.67,7.56.55,1.73,1.15,3.48,1.73,5.17C31.21,377,33.95,385,32,393.9c-.57,2.67.5,5.3,3.26,8s6.08,5.81,10.4,7.49c4,1.57,7,3.57,8.94,6.13a96.68,96.68,0,0,0,9,9.65c4.45,4.37,9,8.89,12.13,14.52A21.69,21.69,0,0,0,81.61,447,13.22,13.22,0,0,1,87,455.44c3,15.78,15,21.33,27.59,25l1.29.38c3.58,1.05,7.27,2.14,11.16,2.14a18.23,18.23,0,0,0,5.29-.75,3.83,3.83,0,0,1,1.09-.17c1.36,0,2.47.9,3.29,2.68a28.1,28.1,0,0,0,7.49,9.78l19.21,16.18c9.21,7.76,18.73,15.79,28.11,23.66a8.49,8.49,0,0,0,4,2c14.54,2.08,28.76,4.1,42.88,5.89.81.1,1.61.19,2.41.27,4,.42,7.85.82,11.25,3.44a8.6,8.6,0,0,0,5.27,1.86,8.14,8.14,0,0,0,6.14-2.84,7.64,7.64,0,0,1,6.18-2.76,22.37,22.37,0,0,1,3.35.32c1.65.26,3.33.6,5,.94a62.56,62.56,0,0,0,8.42,1.34c8.66.58,15.22,4.75,20.65,13.13,1,1.52,1.85,3.18,2.69,4.8,1.78,3.41,3.61,6.94,6.73,9.56,4.38,3.68,7.26,8.81,9.07,16.15,3.77,15.26,12.3,27.15,24,40.32,2.09,2.36,4,3.46,6.14,3.46,1.92,0,3.85-.92,6.06-2.9,3.24-2.89,6.21-6,9.23-9.27,1.79-1.92,3.57-2.81,5.6-2.81a7.7,7.7,0,0,1,1,.07c19,2.63,31.17,11.34,37.14,26.63,3.42,8.77,7.3,18.7,14.25,27,3.29,3.93,5,9.05,6.21,13.54l.51,1.87c4.17,15.35,8.49,31.23,22.07,42.3,6.27,5.11,14,10.59,23.48,12.51a10.53,10.53,0,0,0,2.08.21c4.38,0,7.64-2.89,8.53-7.55a24.88,24.88,0,0,0,.3-6.22c-.73-11.66.3-20.58,3.23-28.1,6.64-17,17.83-28.86,33.26-35.18,10.28-4.21,21.92-9.9,30.35-20.24a4.45,4.45,0,0,1,2.24-1.57c2-.38,4.06-.91,6-1.42a46,46,0,0,1,11.55-2H579c6.32.08,12.63,1.3,18.74,2.48,6.43,1.24,13.08,2.53,19.88,2.53,1.25,0,2.5,0,3.7-.13.48,0,1-.05,1.5-.05a50.56,50.56,0,0,1,9,1.13,61.67,61.67,0,0,0,8.6,1.17l.56,0c1,0,3.4.11,3.58.72,2.32,8.08,8.74,8.85,14.94,9.59l.44.05a2.54,2.54,0,0,1,.31.17,3,3,0,0,0,1,.43c1.2.23,2.44.55,3.74.89a30,30,0,0,0,7.37,1.3A9.23,9.23,0,0,0,677,658.3a7.38,7.38,0,0,1,3.45-1.12c1.63,0,2.8,1.08,4.52,2.86,1.23,1.27,2.72,2.62,4.84,2.62a5.82,5.82,0,0,0,1.87-.33,12.84,12.84,0,0,0,8.65-8.79,11.18,11.18,0,0,0-3-10.46A14.61,14.61,0,0,1,693,631.26a21.86,21.86,0,0,0-.47-6.23,3.33,3.33,0,0,1,.17-2.65,3.67,3.67,0,0,1,2.73-1.07l1.09-.08c.47,0,.94-.06,1.41-.11,3.35-.37,6.82-.4,10.18-.44,6.76-.07,13.75-.15,20.44-2.86a1.35,1.35,0,0,1,.63.17,12.09,12.09,0,0,0,5,3.63,12.06,12.06,0,0,1,3.63,2.29,8.76,8.76,0,0,0,6.55,3,11.93,11.93,0,0,0,4.58-1,33,33,0,0,1,12.67-2.62,31.27,31.27,0,0,1,7.76,1c6,1.55,11.85,4.4,16.81,6.95,7.43,3.82,15.5,7.35,24.12,7.35a31.79,31.79,0,0,0,10.93-1.94,16.92,16.92,0,0,1,5.74-1,16.35,16.35,0,0,1,6.74,1.44,223.07,223.07,0,0,1,24.12,12.8c8.92,5.39,12.39,13.44,10.61,24.6-1,6.57.31,12.21,4,16.77,1.65,2,2.1,4.17,2.51,6.77,1.13,7.11,3.22,15.05,10.19,20a14.94,14.94,0,0,1,6.21,9c2.2,9.34,8.72,15.12,14.82,19.55,6.33,4.6,10.45,8.89,13.37,13.93,3.22,5.57,10.16,9.17,17.67,9.17,5.7,0,10.61-2.13,13.47-5.85a44.48,44.48,0,0,0,8.65-20.41c1.9-13.73.11-26-5.31-36.6-.88-1.71-1.82-3.41-2.73-5.06a93.46,93.46,0,0,1-5.19-10.39c-3.55-8.92-7.26-18-10.85-26.69-4.66-11.34-9.47-23.08-14-34.69a128.4,128.4,0,0,1-9.1-43.26,9,9,0,0,1,3.46-7.83l1.92-1.69c8.47-7.45,17.23-15.16,23.08-25.55,2.59-4.61,5.53-9.82,11.24-12.07,11.28-4.43,19.38-13.22,25.5-27.66,2-4.79,4.55-6.75,8.69-6.75h1a16.07,16.07,0,0,0,11.56-4.75c2.77-2.81,5.53-5.73,8.2-8.54q2.46-2.6,4.93-5.18c7.88-8.2,15.93-15.56,27.71-15.56.58,0,1.17,0,1.75.05l.87,0c5.25,0,9.05-3,11.31-8.89,1.73-4.52.29-8.4-4.39-11.85-.93-.68-1.23-1.18-1.21-1.4,0-.06.12-.6,1.93-1.4,3.81-1.69,7.1-4.63,10.35-9.26,2.39-3.4,3.09-7.18,1.92-10.36a10.11,10.11,0,0,0-7.32-6.14c-1.5-.39-1.69-.76-1.7-.76s.08-.4,1.27-1.44c4.84-4.27,4.08-9.68,3.09-13.39-.24-.9-.53-1.78-.8-2.64a28.92,28.92,0,0,1-1.18-4.42c-.82-5.29-3.8-8.1-9.12-8.58-3.33-.3-6.72-.86-10-1.4l-2.78-.45a4.52,4.52,0,0,1-1.35-.39l.2-.19c5.78-4.84,3.42-9.29,0-13.38a2.1,2.1,0,0,1-.64-1.52c.11-.57.83-1,1.41-1.35a14.76,14.76,0,0,0,6.26-6.41l.27-.52c.44-.87.78-1.49,1.18-1.49a1.66,1.66,0,0,1,.8.29,2.71,2.71,0,0,1,1.36,3.5c-.59,1.52-1.33,3-2.05,4.49-.29.59-.58,1.19-.87,1.78-2,4.26-.71,8.25,3.54,10.65a7.56,7.56,0,0,0,3.75,1,7.65,7.65,0,0,0,6.35-3.71c8.48-12.89,14.21-27.37,18.7-39.83a37.1,37.1,0,0,0,1.26-4.71c.66-3,1.28-5.83,3.5-8.83,5.48-7.41,12.24-17.38,15.9-28.92,1.77-5.58,2.94-11.63-.4-18.11-1.09-2.11-1.42-3.57-1.06-4.58s1.6-2,3.95-2.94a69,69,0,0,1,12.11-3.43,74.24,74.24,0,0,0,12.07-3.36c6.54-2.64,10.88-6,10.81-13.74v-1.1l-1.1.12c-9.51,1-16.88,1.52-21.9,1.52-4,0-5.55-.32-6.17-.54,2.43-1.95,16.82-5.76,28-5.76.73,0,1.43,0,2.09.05,1.35.07,2.91.21,4.56.35,2.84.25,6.06.54,9,.54a24.79,24.79,0,0,0,6-.59c6.09-1.53,9.56-5.9,12.92-10.13a53.49,53.49,0,0,1,4.36-5,3.66,3.66,0,0,0,.85-2.17c0-.24.07-.47.12-.67,1.89-7.51,3.41-8.88,10.89-9.78,8.55-1,13.82-5.75,15.66-14,.91-4.08-2.37-9.86-6.38-11.25a7.57,7.57,0,0,0-2.47-.45c-3.41,0-5.15,2.87-6.15,5-.69,1.47-1.18,1.66-1.53,1.66a2,2,0,0,1-.93-.3c-4.74-2.6-9.07-5.4-10.1-11-2.63-14.41.76-28.23,10.07-41.1,6.42-8.86,15.19-16.64,26.07-23.12l.48-.28c3.2-1.89,7.18-4.25,6.77-9.12-.36-4.28,1.91-5.55,5.63-7.28,12.34-5.71,23-9.4,33.7-11.59,3.65-.75,7.86-3.33,8.73-8.29.71-4-1.4-7.56-5.66-9.42-6.82-3-11.4-8.35-15.88-14a8.5,8.5,0,0,0-7.19-3.48c-7,0-7,0-7.44-7.2a22,22,0,0,1,.31-4.27c1.44-10.05.35-20.67-3.34-32.46-3-9.68-7.6-13.8-15.31-13.8a33,33,0,0,0-8,1.14,26.77,26.77,0,0,1-6.4,1,12.66,12.66,0,0,1-6.78-1.88,12.21,12.21,0,0,0-6.45-1.81Z"/>
	</g>
	<g id="KS"><polygon class="state" points="412.83 394.33 410.22 418.5 475 418.5 493.09 421.84 533.67 421.83 571.2 423.81 574.5 364.4 571.19 353.81 565.83 341.67 565.83 338.83 531 338.83 506.27 335.5 481.63 333.83 451.71 332.17 438.35 335.51 420.06 332.24 412.83 367.05 412.83 394.33"/></g>
	<g id="NE"><path class="state" d="M543.86,270.49l-3.58-7.15-17.34-11.78c-1.77.69-12.06,4.64-15.17,5.26a2.72,2.72,0,0,1-2.23-.48c-1.63-1.19-2.19-4.07-2.33-5l-11.67-5.19-39.92-3.3H387.71l-5.5,53.06,38,6.66v28.67l18.16,3.24,13.3-3.33h.08l30,1.67,24.67,1.67,24.7,3.34h34.77v-5.28l-6.5-5.85-6.79-6.83-4-8.88V285.08Z"/></g>
	<g id="KY"><path class="state" d="M841.63,367.5l-14-.71-18.45-8.5-11,14.46-4.16,2.74-3.11,2.42v8.41l-3.7,5.28-7.35-4.76-4.54,6H754l-15.46,3.27c-.53,1.48-2.83,7.4-5.56,7.4-1.85,0-3.64,4.05-4.17,5.58V425L719,422.19l-8.38,2.62-5.92,1.61-2.46,6.47.07.07-5.58,7.67-5.35,6.54h38.28l12.3,2.32,5.87-2.17v-6.53l5.93-5.62H792.9c.84-.33,6.8-2.67,8.76-2.67h25.24l10.71-4c2.51-.25,8.83-.89,15.81-1.52l20.31-31.31-3.9-5.85v-8.05l-4.52-11Z"/></g>
	<g id="WV"><path class="state" d="M874.75,395.39l3.2,3.64,11.8,3.48a124.64,124.64,0,0,0,12.68.2c.61-1.16,6.36-4.64,11.21-7.42l7.22-8.78,7.73-11.7,4.74-9.5,8.81-8.4h5.28l10.52-14.21,13.93-14.91,17.9,3.38,9,3.27,4.07-2.79-18.36-13.77-26,11h-12.3l-9.3-8.63-24.71,4.23-.65,10.9-16.27,7.46L885,346v5.29l-7.67,3.39-4.64,10.6-6.47,5.18,4.56,11.18v7.85Z"/></g>
	<g id="IA"><polygon class="state" points="651.01 228.88 619.74 233.5 596.33 233.5 555.86 233.48 544.26 230.17 541.17 230.17 541.17 262.88 544.78 270.11 549.5 285 549.5 310.89 553.32 319.17 571.79 319.18 579.73 321.17 636.47 321.17 636.59 321.24 647.5 327.66 651.91 320.73 653.83 316.56 653.83 304.2 656.67 299.29 672.5 285.44 672.5 275.77 665.21 258.53 651.01 228.88"/></g>
	<g id="MO"><polygon class="state" points="585.07 441.17 665.31 441.17 668.97 448.49 662.79 453.04 666 455.96 673.15 460.5 683.59 460.5 683.85 457.51 689.9 447.41 695.95 440.02 701.02 433.04 690.5 421.87 690.5 411.82 687.92 407.94 680.65 400.69 672.5 395.27 672.5 373.29 661.25 366.62 651.19 351.81 647.17 338.33 647.17 328.62 636.2 322.17 579.54 322.15 571.61 320.17 554.21 320.17 560.02 325.98 566.83 332.11 566.83 341.56 572.12 353.46 575.5 364.27 575.5 364.36 572.17 424.29 575.42 438.59 585.07 441.17"/></g>
	<g id="CO"><polygon class="state" points="409.22 418.5 411.84 394.28 411.83 366.95 411.84 366.9 419.17 331.62 419.17 303.42 381.58 296.83 284.84 282.39 269.56 395.27 387.1 418.51 409.22 418.5"/></g>
	<g id="OH"><path class="state" d="M841.69,277l.13.5-4.7,1.18a10.23,10.23,0,0,1-2.48.35,3.54,3.54,0,0,1-3.21-1.38c-1.49.58-6.32,2.18-8.78-.28s-7.37.07-7.42.09l-.11.05H796.25l2.07,12.75,3.17,12.06.67,14,7.28,41,18.49,8.52,13.78.66,23.8,3.31,6.4-5.12,4.7-10.73,7.43-3.28V345.3l10.8-3.44,15.67-7.19.65-10.7,2.28-8.93-4.94-12V282l-6.11-10v-9l-1.87-10.69c-12.81,3.53-23.59,10.51-34.78,16.93-6,3.44-11,8.72-18.65,8.65A12.41,12.41,0,0,1,841.69,277Z"/></g>
	<g id="SD"><path class="state" d="M498.3,162.83l-36.67-2.72H396.29l-8.48,81.75h63.85l40.13,3.31,12.34,5.48,0,.28s.4,3.45,2,4.59a1.74,1.74,0,0,0,1.44.3c3.25-.65,15.13-5.26,15.25-5.31l.24-.1,17.1,11.62V229.17h3.67V202.39L540.17,187l0-21.53Z"/></g>
	<g id="WY"><polygon class="state" points="263.43 172.2 248.23 275.91 381.22 295.76 392.78 184.31 330.27 176.83 263.43 172.2"/></g>
	<g id="MD"><path class="state" d="M1044.09,336.68,1040,324.15l-2.14-18.66h-12.22l-17.24,3.32H991.09L972,315.5h-19L938,319.9l8.54,7.93h11.7l26.36-11.1,19.93,14.95-.05,0,7,6.39v11.5l2.63,11.64,7.12,8.6,11.47.82,0,.5h0a13.88,13.88,0,0,0,5.84-6c.76-1.41,1.4-3.43,3.64-2.1a3.68,3.68,0,0,1,1.78,4.72c-.84,2.17-1.95,4.23-3,6.34-2,4.13-.34,7.39,3.13,9.35,3.27,1.85,6.72.77,8.77-2.36a153.66,153.66,0,0,0,13.49-26.26l-.3.4-12.18-9V341.8Z"/></g>
	<g id="GA"><path class="state" d="M856.67,498.06l-5.4-2.75-7.18-9.14H809l-18.5,2.6v10.81L794.83,511v15.88l4.67,9.62v10.39l5.34,11.34v.12l-2,46V613l48.2,2.88,33,6.11,5.32-15.48,24.54,2.18a124.5,124.5,0,0,1-2.63-21.86,10,10,0,0,1,3.8-8.61c3.27-2.89,6.56-5.75,9.73-8.72l-.38.34-5.68-6.37-10-4-6.28-5.29-.54-11.34-4.27-.75a5.72,5.72,0,0,1-5.08-5.28l-3.34-8.39v-6.67s0-.07-.07-.12c-.81-.63-4.76,0-7.31.61l-.14,0-11-3.49-7.5-6.81v-5.5Z"/></g>
	<g id="VA"><path class="state" d="M915,423.83l16.73.83,18-.83,19.29-2.66,21.34-2.67,27.27-7.32,25.94-6,10.67-6.16.25.43c-.75-4.83-3.32-7.29-8.23-7.73-4.3-.39-8.56-1.18-12.83-1.86-1.29-.21-3.39-.86-1.63-2.33,5.08-4.25,3.21-8-.11-12-1.33-1.6-1.11-2.91.35-3.95l-11.19-.8-7.54-9.11-2.71-12V338.55l-6.88-6.25-4.74,3.26-9.39-3.42-17.28-3.26L958.7,343.34l-10.78,14.57h-5.39L934.08,366l-4.63,9.33-7.79,11.79-7.44,9c-4.72,2.71-9.8,5.86-10.75,6.82h0l-.13.35c-.11.22-.26.52-4.07.52-2,0-5-.08-9.63-.31l-.12,0-12.14-3.58-3-3.41-19.7,30.37c11.08-1,23.32-1.92,24.53-1.31,1.53.77,8,.22,10.39,0l.56-.06v0Z"/></g>
	<g id="NV"><path class="state" d="M79.52,287.58l26.58,48.51,41.33,70.65,4.17,10.7c1.08-8.3,3.22-19.38,3.58-21.21l.08-.4h9.9l8-26.31L191.77,240,93.39,214.95Z"/></g>
	<g id="PA"><path class="state" d="M901.49,252.09l1.89,10.83v8.78l6.11,10V302.9l5,12.06-2.15,8.42,24.55-4.2L953,314.5h19l19-6.67h17.33l17.24-3.32h12.76l11.71,1.3,3.89-7.64c.15-.62,1.35-5.48,2.65-7.44,1-1.47.31-6.66-.05-8.69l-2.52-3.2-3.54-6.93,3.42-13.55-3.33-11.76-7.92-8.58-9.09-6.81-13.79,2.3c-.11,0-11.29,2-13.86,3.29s-15.59,3.6-16.14,3.69c-.12,0-12.7,2.36-17.59,3.68s-15.34,2.46-15.78,2.51L935,252.83h-7.61l-.15-.23c-5-7.92-6.27-10.93-6.44-12.14-5.79,5.35-12.36,9.71-19.81,11.71h0Z"/></g>
	<g id="VT"><path class="state" d="M1079.42,120.17l-3.25,15.5c.16.83,1.28,6.71,1.62,8.57.14.75.3,2,.48,3.35.31,2.33.69,5.22,1.15,7.3.71,3.25,5.32,14.21,5.37,14.32l0,.1c.36,1.87,1.62,6.94,3.12,7.94,1.93,1.29,4.2,8.67,4.76,10.58h12.88l6-1.94c.14-1.92.87-12,.27-16.42a41.3,41.3,0,0,1,0-9.92v-19.4l6.79-7.83,3.25-5s3.13-5.71,0-11.42a6.44,6.44,0,0,1-3.27,1.13c-3.66.42-7.2.93-10.89.2a21.25,21.25,0,0,0-8.92.24,127.84,127.84,0,0,1-19.89,2.55Z"/></g>
	<g id="OK"><path class="state" d="M540.67,513.17H556c2.63,0,7.55,2.08,11.75,4.12l2.09-78.79h4.53l-3.11-13.69-37.62-2H493l-18.09-3.34h-87.4l.25,13.08c4.3.59,41.06,2.37,60.6,3.25l.48,0v53.72c1.12,1.31,10,11.59,15.13,11.59a25.15,25.15,0,0,1,11,2.32l.94.38c3.27,1.31,14.84,4.62,15,4.65l14.26,5.31c1-.08,7.46-.62,9.42,0s13.61,3.72,14.57,4h7.33a4.41,4.41,0,0,1,.67-3.21A4.25,4.25,0,0,1,540.67,513.17Z"/></g>
	<g id="TN"><path class="state" d="M827.17,475.33l6.9-2.76,7.3-6.61L858.7,452.6l16-15.12.1,0,14.33-4.81v-6.08c-2.07.22-8.55.81-10.39-.11-1.6-.66-25.37,1.46-41,3l-10.78,4H801.67c-1.56,0-6.65,1.9-8.48,2.63l-.19,0H754.17l-5.33,5V448l-6.78,2.5-12.48-2.36h-39l-5.79,9.66L683.5,473l-3.18,11.5,10.05.63,11.36,2.67h21.76L754,491.17h13l22.93-3.33,19-2.67h16.39l1.85-4.92Z"/></g>
	<g id="UT"><polygon class="state" points="283.85 282.24 247.1 276.75 250.84 251.23 192.75 240.25 174.22 369.3 268.58 395.03 283.85 282.24"/></g>
	<g id="AR"><path class="state" d="M653.28,514.68l8.33-10L670,492.62l9.22-7.9,3.29-11.85,1-11.37H672.85l-7.46-4.75L661.21,453l6.49-4.78-3-6-79.82,0-9.94-2.65h-4.11l-2.08,78.28c3.47,1.73,6.25,3.31,6.51,3.46l.25.14v19.76c1.8.5,9.88,2.7,12.17,2.7H611l37.5,2.63v-4.95l1.33-15.23Z"/></g>
	<g id="MS"><path class="state" d="M719.83,509l3.07-20.17H701.55l-11.33-2.67-10.38-.64-9.13,7.83-8.3,11.95-8.29,10-3.3,11.23-1.31,15.09V547l.67,10.64V567l-1.37,9-7.42,4.72-3.27,5.89-2.57,7.08,2.58,6.44c1,1.46,3,3.73,4.22,3.73h26.23l3.59,4.3.64,9h12.37l6.59,4.89c.59-1.05,1.82-1.57,3.58-1.74.83-.08,1.66-.1,2.49-.19,6.32-.69,12.76-.23,19.1-.75h-.5V557c.29-5.39.57-14.28.12-15.28-.68-1.52,2.32-12.63,3.29-16.12Z"/></g>
	<g id="NY"><path class="state" d="M1100.15,253.39l-.38.34-7.91-9-.94-8.16.92-14.24V188.4c-1.06-3.68-3.1-9.42-4.44-10.32-2.07-1.38-3.35-7.59-3.54-8.53-.38-.9-4.69-11.18-5.41-14.44-.46-2.12-.85-5-1.16-7.38-.18-1.38-.34-2.57-.47-3.3-.37-2-1.63-8.66-1.63-8.66l0-.1,3.26-15.56-8.23.53c-12,.82-24.74.79-34.55,10.2-12.21,11.72-24.55,23.08-23.06,42.41.52,6.8-2.1,8.34-8.72,9.82-5.23,1.17-10.62,1.14-15.73,2.44-14.51,3.66-29.27,6.31-43.5,11.08-11.34,3.8-12,7.8-7.67,16.45.44.89.47,2,1,2.8,2.62,3.59.8,6.32-1.8,8.62-4,3.55-7.33,7.72-11,11.61-1.26,1.35-2.56,2.66-3.9,3.93l.34.37a.25.25,0,0,0,.08-.12c-.15.9,3,6.56,6.2,11.61h7l21.27-6.16c.19,0,10.84-1.19,15.71-2.49s17.54-3.67,17.67-3.69,13.3-2.32,15.87-3.6,13.67-3.3,14.14-3.38l14.22-2.37,9.5,7.13,8.15,8.82,0,.12,3.29,11.61c1.88-.13,9.81-.72,12.11-1.29,2.69-.67,8.52,3.74,9.68,4.65h15.35v13.52a12.44,12.44,0,0,1,3.28-1.86c7.77-3.27,16.31-3.62,24.2-6.8,6.7-2.7,10.25-5.89,10.19-12.81C1108,255.51,1100.3,254.93,1100.15,253.39Z"/></g>
	<g id="NC"><path class="state" d="M1054.44,422.93c-3.53-.93-2.68-2.29-.83-3.92,4-3.49,4-7.78,2.79-12.38-.59-2.23-1.48-4.4-1.91-6.65l-10.72,6.17-26,6-27.32,7.33-21.4,2.68-19.33,2.67-18,.84L915,424.83l-24.81,1.64v6.89l-14.9,5-15.92,15L842,466.73l-7.48,6.73L828.17,476l0,4.5-1.75,4.66h17.8l7.33-4.67h4l7.33-6h69l.14.11c3.62,2.85,9.52,6.53,10.67,5.37,2.2-2.2,7.63-.2,7.86-.11l9.51,5.45c2.26,2.26,6.34,5.85,7.65,5.85,2.12,0,6.79,5.14,7.71,6.17l5.13,8.58a9.27,9.27,0,0,1,6.06-1.7,15.07,15.07,0,0,0,11.36-4.44c4.44-4.51,8.74-9.15,13.12-13.71,8.31-8.65,17-16.61,30.25-15.82,5.93.35,9.25-3.17,11.18-8.23,1.77-4.64-.31-7.93-4-10.68-2.54-1.87-2-3.25.91-4.53,4.2-1.86,7.35-5.24,9.93-8.92C1063.71,431.56,1061.51,424.8,1054.44,422.93Z"/></g>
	<g id="SC"><path class="state" d="M979.68,506.48l-5.11-8.55c-1.95-2.18-5.61-5.76-6.9-5.76-2.07,0-7.18-5-8.31-6.1l-9.28-5.3c-1.33-.49-5.28-1.53-6.73-.08-2.15,2.15-10-3.71-11.86-5.19H863.18l-7.33,6h-4l-6.74,4.29L852,494.6l5.4,2.76,6.77,8.69v5.4l7.09,6.44,10.43,3.26c1.36-.33,6.59-1.52,8-.39a1.12,1.12,0,0,1,.45.91v6.57l3.33,8.38a4.67,4.67,0,0,0,4.25,4.41l5.06.88.56,11.7,5.88,5,10,4,5.83,6.54c5.6-5.29,10.79-11,14.69-17.92,2.79-5,5.8-10.17,11.75-12.51,12.68-5,19.85-15.09,24.95-27.12a13.82,13.82,0,0,1,3.59-5.34Z"/></g>
	<g id="FL"><path class="state" d="M945.25,691.77c-8.17-20.51-16.83-40.82-24.85-61.39A138.18,138.18,0,0,1,914,609.16l0,.5L890,607.53l-5.35,15.55-33.76-6.26-49.08-2.93v-9.06H742.17v20.6h-.5a8.87,8.87,0,0,0,6.91-.42,32.72,32.72,0,0,1,21.06-1.67c6,1.53,11.53,4.21,17,7,10.78,5.54,21.73,9.86,34.26,5.36a17.65,17.65,0,0,1,13.23.46A224.92,224.92,0,0,1,858.38,649c9.92,6,12.81,14.78,11.08,25.61-.94,5.92,0,11.35,3.83,16,1.82,2.22,2.3,4.54,2.73,7.25,1.18,7.45,3.3,14.75,9.78,19.39a15.88,15.88,0,0,1,6.61,9.56c2,8.54,7.63,14,14.43,19,5.33,3.87,10.21,8.31,13.64,14.24,5.72,9.89,22.86,11.8,29.49,3.21a43.45,43.45,0,0,0,8.45-19.93c1.68-12.14.65-24.61-5.21-36C950.55,702.14,947.4,697.16,945.25,691.77Z"/></g>
	<g id="DE"><path class="state" d="M1066.74,328.85l-.16-.25c-1.28-2-5-7.47-6.52-8.52-2.06-1.37-5.91-7.23-6.07-7.48l-3.94-5.8-11.15-1.24,2.1,18.38,3.92,12,10,5.21v4.55l11.67,8.64c1.74-4.25,3.35-8.56,4.91-12.88s1.39-8.68,4.54-13.27Z"/></g>
	<g id="AL"><path class="state" d="M741.17,603.83h60.69l2-45.4L798.5,547V536.73l-4.67-9.62v-16l-4.33-11.43V488.91l-22.43,3.25H754l-30.06-3.28-3.08,20.19v16.66l0,.07c-1.92,6.92-3.71,14.61-3.36,15.51.68,1.52.09,13.35,0,15.71v62.3a37.34,37.34,0,0,0,10.79-2.44,1.92,1.92,0,0,1,1.75.5c2.16,3,6.2,3.34,8.59,5.85a9.32,9.32,0,0,0,2.61,2Z"/></g>
	<g id="RI"><path class="state" d="M1160.88,223.16l-9.27-7c-1.31.35-7.54,2-10.61,2a24.08,24.08,0,0,0-7.47,1.82l.94,10.63,1.94,7.3-4.37,8.61c5.44.33,13.68,1.56,18.69.3,8.23-2.07,11.46-9.69,16.83-14.92.51-.5.5-1.56.7-2.36,1.22-4.84,2.37-7.33,4.88-8.76Z"/></g>
	<g id="ME"><path class="state" d="M1253.64,80.36c-7-3.08-11.73-8.58-16.27-14.33a7.54,7.54,0,0,0-6.41-3.1c-7.65,0-8-.44-8.44-8.14a22.76,22.76,0,0,1,.32-4.47c1.57-11-.05-21.62-3.3-32-3.74-12-9.82-15.06-22.06-12-4.73,1.19-9.32,1.8-13.95-1-4.33-2.64-9.08-1.84-13.42.33-9.13,4.57-13.42,12.36-11.83,22.56.9,5.76-.5,9.75-5.69,12.42-3.71,1.91-5.32,4.7-3.93,9,2.6,8.06,3.33,15.78-.3,24.19-2.92,6.76-7.27,12.63-10.07,19.36a3.75,3.75,0,0,1-2.41,1.59h0l.49-.14,5.79,20.91c0,.18,2.68,13.93,4.6,16.84,1.52,2.29,4.83,11.29,7,17.25.76,2.05,1.35,3.68,1.69,4.53,1.18,3,10.68,13.06,12.22,14.68a58.08,58.08,0,0,1,9.8-20.86c7-9.64,16.09-17.27,26.37-23.39,3.34-2,7.14-4,6.77-8.47-.42-5,2.49-6.55,6.21-8.27a155.33,155.33,0,0,1,33.92-11.67c3.6-.74,7.2-3.22,8-7.48C1259.41,84.7,1257,81.84,1253.64,80.36Z"/></g>
	<g id="LA"><path class="state" d="M692,631.2a20.8,20.8,0,0,0-.45-5.94,5,5,0,0,1,0-2.78l-.32.44-6.4-4.75h-13l-.69-9.64-3.08-3.7H642.33c-2.2,0-4.79-3.79-5.08-4.22l0-.09-2.74-6.84,2.73-7.51,3.43-6.18,7.25-4.61,1.3-8.44v-9.26l-.64-10.2L611,544.83h-23.3c-2.34,0-9.91-2-12.17-2.66v25.4l4.67,12.75v23.52l-4.67,5.33v10l-3.43,4.8-5.24,8.52v7.63c4-1,7.92-2.07,12.19-2,14.24.17,27.71,5.94,42.23,4.88,6.19-.45,12.75,2,19.25,2.24,1.85.08,4.64,0,5.06,1.46,2.19,7.62,8.34,8.18,14.54,8.93.47.06.89.52,1.36.6,5,.95,10.75,3.59,15,1.21,4.66-2.59,6.58-.76,9.18,1.91,1.58,1.63,3.15,2.9,5.68,2,8.19-2.79,11-11.5,5.21-17.62A15.56,15.56,0,0,1,692,631.2Z"/></g>
	<g id="MI"><path class="state" d="M792.45,156.9c-2.93,3-4.76,6.8-6.65,10.5-1.51,3-3.57,5.27-6.89,6-4.41,1-7,3.87-9.38,7.58-3.78,5.95-5.66,12.84-9.29,18.71-5.67,9.15-6.14,18.72-3.4,28.33,2.27,7.95,2.22,15.77,1.9,23.74-.28,6.91-1.49,13.53-4.52,19.56h42v5.17h18.72c.82-.39,5.77-2.55,8.47.15,2.39,2.4,8.05-.08,8.11-.1l.53-.24.15.56c0,.07.63,1.86,4.73.83l4.26-1.07c-1.51-1.19-1.33-3.32.5-6.81,5.72-10.86,10.94-22.09,18.22-32,3.32-4.52,4.23-8.88,2.62-14q-2.64-8.32-5.44-16.59c-4.28-12.67-6.33-14.44-17.52-11.81-3.1.73-4.21-.78-3.73-3.93a89.91,89.91,0,0,0,1-10.44c.35-10.25-1.62-19.32-12.61-23.6a18.53,18.53,0,0,1-4.1-2.8C809.07,146.33,801.33,147.72,792.45,156.9Z"/><path class="state" d="M679.71,132.57l7.58,5.35,8.59,4,9.32,4c.12.07,5.32,3.29,8.47,3.29h12.5v4.29l6,5.95v24.25l5.14,4.95,4.9,3c.54-1.29,1.14-2.57,1.82-3.84,2.33-4.36,1.37-8.23-2.76-10.7-2.44-1.46-1.8-2.9-.91-4.51,2.26-4.07,4.63-8.09,7.07-12.06.48-.79,1.75-2,2.19-1.78,7.77,3.07,11.94-2.51,17.71-6a44.31,44.31,0,0,1,26.78-6.43c10.14,1,15.48-5.8,21.55-11.4a8.11,8.11,0,0,0,1.71-9.29c-1.61-3-4.75-1.21-7.23-.54a9.09,9.09,0,0,1-7.65-1c-3.41-2.13-7.39-3-10.29-6.43-2.17-2.57-6-3-9.76-2.27a88.12,88.12,0,0,0-21.23,6.91c-6.94,3.18-14,4.66-21.67,1.68-4.14-1.61-8.15-3.76-12.75-4.27-2.78-.31-2.39-2.25-1.06-4a16.82,16.82,0,0,0,3.36-7.18c.46-2.64-.2-5-2.6-6.54a5.75,5.75,0,0,0-6.64-.06c-5.86,4.34-12.18,8.32-17.14,13.55-5.94,6.26-12.84,11-19.83,15.75A8.11,8.11,0,0,1,679.71,132.57Z"/></g>
	<g id="CT"><path class="state" d="M1135.35,237.81l-1.86-7-.94-10.54L1118,222.83c-5.89.63-6.22.13-6.38-.11l0-.06a138.69,138.69,0,0,0-13.89.18h-4.89l-.89,13.7.9,7.76,7.53,8.58c2.1-2.61,19.91-6.94,31.16-6.37l-.45-.23Z"/></g>
	<g id="NJ"><path class="state" d="M1091.41,275.17h-.5v-13h-14.7l-.14-.11c-1.82-1.44-7-5.06-9-4.57-2.43.61-10.53,1.2-12.32,1.32l-3.27,13,3.32,6.52,2.62,3.32,0,.12c.14.76,1.33,7.44-.08,9.55-1.27,1.9-2.51,7.12-2.53,7.17l0,.11-3.94,7.74,3.91,5.76c0,.07,3.9,5.94,5.79,7.2s5.8,7.24,6.65,8.56l9.09-.6,0,.5c6.36-8.59,12.38-18,15.75-28.63,1.91-6,2.67-11.53-.34-17.35C1090.22,278.66,1090,276.72,1091.41,275.17Z"/></g>
	<g id="MT"><path class="state" d="M195.46,76.31l6,19.68,12.08,19.94-5.37,20.46v6.1h4.6L217.5,137v13.28l6.62,21.83,5.79,7.07h9l13.41-3.35,9.12,2.85,1.1-7.53,67.8,4.7,62.52,7.48,11.6-111.89c-1.75.06-3.49.12-5.24.2a19.31,19.31,0,0,1-5.9-.78,92.69,92.69,0,0,0-16.28-2.44c-9.94-.9-19.89-1.8-29.76-3.26-15.1-2.24-30.25-4.09-45.23-7.21-9.41-2-19.12-2.45-28.68-3.73-12.37-1.65-24.67-4.24-37.08-5-14.08-.81-27.45-4.43-40.87-8Z"/></g>
	<g id="ID"><path class="state" d="M169.49,96.12l-6.66,38.3-10,34.72-7.32,38L140,225.81l52.42,13.37L251,250.24l10.34-70.57-9-2.81-13.26,3.31h-9.63l-6.24-7.69-6.69-22.15V139.69l-3.27,3.81h-6.06l0-7.29,5.28-20.12L200.52,96.35l-6.06-20V41.15H195l-3.5-.92c-3.49-.9-7.13-1.39-10.51-3Z"/></g>
	<g id="ND"><path class="state" d="M405.49,71.45l-9.09,87.67h65.27l36.7,2.72,42,2.64,3.49-8.25v-17.9l-3.33-22.25-4-19.84.65-24.1c-7.29.15-14.6,0-22-.37-19.71-1-39.52.2-59.27-.19-17-.33-33.93-.75-50.89-.19Z"/></g>
	<g id="TX"><path class="state" d="M565.83,640.24v-8l5.41-8.79,3.26-4.57v-10l4.67-5.33V580.42l-4.67-12.75V522c-1.91-1.07-14-7.79-18.5-7.79H540.67a3.32,3.32,0,0,0-2.81,1.05,3.84,3.84,0,0,0-.38,3l.18.64-8.79,0c-.52-.14-12.71-3.34-14.7-4-1.56-.52-7.12-.16-9.13,0h-.11l-.11,0-14.33-5.33c-.44-.12-11.69-3.34-15-4.67l-.94-.38A24,24,0,0,0,464,502.17c-5.87,0-15.6-11.59-16-12.09l-.12-.14V436.81c-5.83-.27-55.68-2.56-60.42-3.27-2.22,4.11-12.28,69.48-18.58,113.05l-.07.49-.49-.06-71.1-9.44v8.95h-.52c4.49,2.35,8.1,6,11.18,10.81s4.8,10.42,9.22,14.14c5.29,4.45,7.87,10.51,9.4,16.68,3.9,15.81,13.31,28.12,23.73,39.9,3.56,4,6.69,4.14,10.79.47,3.22-2.88,6.21-6,9.16-9.2,2.08-2.23,4.42-3.47,7.52-3,17.45,2.41,31.22,10,37.94,27.26,3.69,9.46,7.41,18.76,14.09,26.73,3.24,3.88,5,8.79,6.41,13.92,4.37,16,8.38,32.35,22.25,43.65,6.92,5.64,14.18,10.52,23,12.31,4.78,1,8.52-1.74,9.43-6.55a24.2,24.2,0,0,0,.28-6c-.61-9.72-.17-19.63,3.29-28.52,6.32-16.21,17.14-28.92,33.82-35.74,11.31-4.63,22-10.21,29.95-19.94a5.43,5.43,0,0,1,2.83-1.92c1.81-.34,3.58-.79,5.36-1.25Z"/></g>
	<g id="WA"><path class="state" d="M51.36,53c-.63,3.95-1.5,8,2.05,11.18,1.29,1.17,1,2.73.62,4.22-.59,2.67-2.09,5.22-1.94,8l.16-.47c.39.13,9.63,3.3,12.3,4.64s6,6,6.18,6.16l.09.13v18l3.71,3.71H81.6l12.09-3.36,9.4,3.36,11.43,0,8.58,3.3h8.57l33.44,3.63,3.4-19.52L180,37l.49.1h0c-7-3.49-14.26-6.74-22-7.78-9.14-1.23-17.63-4.71-26.63-6.41-11.4-2.15-22.77-4.52-34.25-6.21-7.29-1.08-10,1.72-10.34,9.13-.1,2.43-.4,5.3-2.75,6.59-2.15,1.18-3.47-1.25-5.08-2.29a8.56,8.56,0,0,0-2.72-1.16,12.18,12.18,0,0,1-8.36-5.71c-1.2-2-3-3.84-5.59-3.76-7.78.25-17,10.85-13,18.47C52.39,42.87,52.18,47.83,51.36,53Z"/></g>
	<g id="OR"><path class="state" d="M18.49,189.86l74.66,24,45.91,11.71,5.46-18.71,7.32-38,10-34.71,3.09-17.74-33.33-3.62h-8.71l-8.67-3.33-11.41,0-9.18-3.28-12,3.31H74.13l-4.29-4.29v-18c-.55-.75-3.44-4.57-5.72-5.72s-10.6-4-12-4.51a7.09,7.09,0,0,0,1.08,2.88C54,81.11,52,82.34,51,83.43a16.47,16.47,0,0,0-4.48,10.8,24.33,24.33,0,0,1-2.74,11.54,45.29,45.29,0,0,0-4.6,14.09,89.37,89.37,0,0,1-11,29.25c-2.28,3.85-5.79,6.61-7.57,11-4.08,10-3.16,20.12-2.33,30.25Z"/></g>
	<g id="NM"><path id="ID-2" data-name="ID" class="state" d="M296.17,536.43,367.91,546c2.82-19.44,15.84-108.46,18.85-113.18l-.25-13.37-117.1-23.15c-1,6-9.91,61.1-9.91,66.08,0,5.33-6.41,34.21-6.68,35.44L242,541.57c3.71.41,7.31,1,10.6,3.52a7.2,7.2,0,0,0,10-.85c3.11-3.52,6.61-3.36,10.43-2.77,4.44.69,8.83,2,13.29,2.27a25.63,25.63,0,0,1,9.76,2.53Z"/></g>
	<g id="AZ"><path class="state" d="M241.05,541.4l10.79-43.85c.06-.29,6.65-30,6.65-35.21s9-60.35,9.93-66.3L174,370.28l-8.11,26.56h-9.81c-2,10.54-4.87,27.47-4,29.28,1.39,2.77.1,13.18,0,13.62l0,.16-8,15.94-3.34,15.39-8,9.85c2.15-.3,3.77,1,4.8,3.21a27,27,0,0,0,7.22,9.44q23.67,19.91,47.31,39.84a7.56,7.56,0,0,0,3.52,1.75c14.28,2,28.56,4.08,42.86,5.88,1,.13,2,.23,3.06.34Z"/></g>
	<g id="CA"><path class="state" d="M131.6,480.91l8.27-10.13,3.35-15.33,8-15.92c.37-3,1.07-10.91,0-13-.42-.84-.26-3.75.17-7.45l-.19.08-4.67-12-41.3-70.6L78.48,287.75l14-73.08-74-23.8c.17,2.12.34,4.24.45,6.36.16,3.09.4,5.87-1.59,8.5-1.6,2.11-2.85,4.49-4.41,6.65C5.81,222.1,2,232.19,7.93,244c1.94,3.88,2,8.19,1.33,12.69a38.46,38.46,0,0,0,0,13.8c2,9.08,4.89,18,7.49,26.91a9.33,9.33,0,0,0,4.11,5.49c3.77,2.31,4,5.48,1.17,8.27-3.73,3.72-3.62,7.4-1.7,11.81,2.25,5.17,4.23,10.32,1.5,16.2-1.41,3-.37,6.61.69,9.79,1.57,4.74,3.51,9.36,5,14.12,3.2,10.08,7.86,19.9,5.49,31-.6,2.83,1.07,5.22,3,7.12,3,2.93,6.08,5.72,10.06,7.27a21.08,21.08,0,0,1,9.37,6.45c6.58,8.52,15.88,14.63,21.17,24.3a21.27,21.27,0,0,0,5.59,7,14.22,14.22,0,0,1,5.74,9.05c2.85,15,14.22,20.52,26.89,24.2C120.27,481,126,483,132,481.23Z"/></g>
	<g id="MN"><path class="state" d="M651.41,126.88c3-4.55,5.79-7.08,9.9-8.54,6.27-2.23,11.27-6.4,16.62-10,3.45-2.33,6.22-5.86,4.68-10.15-1.39-3.89-5.76-3.1-9.12-3.53-.82-.1-1.67.08-2.5,0-10.58-.92-21.27-1.08-31.36-5.1-2.81-1.12-5.15-2.46-5.48-5.76a4.89,4.89,0,0,0-4.52-4.63c-7.15-.93-14.38-5.16-21.49.25a2.4,2.4,0,0,1-1.93.13c-8.15-2.92-18.3-2.86-20.62-14.39a4.91,4.91,0,0,0-5.5-4.15c-3.15.4-3.95,2.9-4.08,5.47-.16,3.15-1.81,4.08-4.68,4.67C566.11,72.2,561,70.45,555.9,71c-6.1.66-12.19,1-18.28,1.14h.53l-.64,24,4,19.76,3.34,22.35v18.18l-3.67,8.67v21.84l3.67,15.39v27l11.24,3.21h63.6l31.14-4.6v-7l-7.46-6.18-11.72-8.65-9.87-8.23,3.41-11.58v-21.5l10-8V146.21l4.08-16.61,11.95-2.45Z"/></g>
	<g id="WI"><path class="state" d="M651.41,128.13l-11.33,2.32-3.91,15.94v10.85l-10,8,0,21.23-3.24,11,9.34,7.79L644,213.93l7.84,6.5v7.79L666,257.83h66.94v.5a24,24,0,0,1,.81-3.52c3.27-10.54,4.13-21.58,4.08-32.59,0-10.35.29-20.55,4.19-30.17l-.27.44-5.09-3.13-5.49-5.28V159.82l-6-5.95v-3.71h-11.5c-3.44,0-8.71-3.27-8.93-3.41l-9.27-4-8.68-4-8.13-5.73.29-.41c-2.17,0-4-1.36-5.42-4-2.69-5.14-4.48-5.87-10-3.55a31.24,31.24,0,0,1-11.71,2.74l-.47.34"/></g>
	<g id="IL"><path class="state" d="M741.57,281.14a3.91,3.91,0,0,1-2.15-1.6c-4.22-6.37-7.56-12.92-6.55-20.71H666.42l7.08,16.83v10.23L657.39,300l-2.56,4.48,0,12.41-2,4.33-4.62,7.27v9.78l4,13.19L662,366l11.48,6.75v22l7.78,5.18,7.41,7.4,2.81,4.2v10l10,10.61,2.47-6.49,6.39-1.73,8.64-2.71,8.84,2.52,0-14.83c.22-.65,2.2-6.34,5.14-6.34,1.67,0,3.74-4.21,4.68-6.92l0-9.58c.39-1.19,1.19-4.59.21-6.06-1.39-2.09,4.59-10.93,6.59-13.79a50.49,50.49,0,0,0,.19-8.06c-.43-.25-1.19-1.36-2.79-6.27-.1-.47-2.08-10.26-.34-13.71,1.57-3.13,0-9.59,0-9.65V281.82Z"/></g>
	<g id="IN"><path class="state" d="M742.51,281.82v46.46c.18.73,1.62,7-.05,10.29-1.58,3.14.39,12.91.42,13a30.29,30.29,0,0,0,2.26,5.6h.08l.22.19c.46.5.48,3.53.06,9v.14l-.08.11c-3.75,5.32-7.37,11.71-6.66,12.77,1.37,2,.14,6.2-.07,6.85l0,8.82L754,391.83h20.78l4.8-6.35,7.32,4.74,3-4.23v-8.58l3.53-2.74,4.12-2.72,11-14.42-7.29-41.12-.67-14-3.16-11.95-2.11-13h-.08v-5.17H754v-.5a35.41,35.41,0,0,1-3.92,5.95,9.28,9.28,0,0,1-7.45,3.55Z"/></g>
	<g id="NH"><path class="state" d="M1166.36,180.46a50.27,50.27,0,0,1,1.2-11.07l-.38.36c-.46-.48-11.29-11.85-12.65-15.23-.35-.86-.95-2.49-1.7-4.55-2-5.55-5.46-14.85-6.92-17-2-3.07-4.63-16.59-4.74-17.16l-5.77-20.85c-3.5,1-5.88,3.72-8.6,5.85-3.4,2.66-5.8,5.71-4.07,10.67.61,1.75.48,3.18-.45,4.17l.44-.24c3.47,6.24.14,12.28,0,12.53l-3.31,5-6.58,7.6v19.1a41.54,41.54,0,0,0,0,9.72c.58,4.28,0,13.54-.24,16.22l5.32-1.73h17.89l10.53-3.35H1166Z"/></g>
	<g id="MA"><path class="state" d="M1166,181.49h-19.59l-10.53,3.35H1118l-12.25,4h-12.91v33h4.83c14.28-.65,14.61-.1,14.79.19l0,.07a33.27,33.27,0,0,0,5.36-.25l15-2.65c.56-.24,4.9-2,8.14-2s10.51-2,10.58-2l.24-.06,9.31,7,14.4-2.78.1.5A30.67,30.67,0,0,1,1180,219c8.17-1,13-5.34,14.81-13.25.79-3.55-2.15-8.85-5.73-10.09-3.89-1.35-5.93.91-7.39,4.05-.8,1.71-1.84,2.92-3.85,1.82-4.87-2.67-9.49-5.62-10.6-11.72a53.22,53.22,0,0,1-.87-8.41Z"/></g>
</svg>